<?xml version="1.0" encoding="utf-8"?><!DOCTYPE svg PUBLIC "-//W3C//DTD SVG 1.1//EN" "http://www.w3.org/Graphics/SVG/1.1/DTD/svg11.dtd" [
	<!ENTITY ns_extend "http://ns.adobe.com/Extensibility/1.0/"><!ENTITY ns_ai "http://ns.adobe.com/AdobeIllustrator/10.0/"><!ENTITY ns_graphs "http://ns.adobe.com/Graphs/1.0/"><!ENTITY ns_vars "http://ns.adobe.com/Variables/1.0/"><!ENTITY ns_imrep "http://ns.adobe.com/ImageReplacement/1.0/"><!ENTITY ns_sfw "http://ns.adobe.com/SaveForWeb/1.0/"><!ENTITY ns_custom "http://ns.adobe.com/GenericCustomNamespace/1.0/"><!ENTITY ns_adobe_xpath "http://ns.adobe.com/XPath/1.0/">
]><svg version="1.1" id="Layer_1" xmlns:x="&ns_extend;" xmlns:i="&ns_ai;" xmlns:graph="&ns_graphs;" xmlns="http://www.w3.org/2000/svg" xmlns:xlink="http://www.w3.org/1999/xlink" x="0px" y="0px" viewBox="0 0 384 359"
	 enable-background="new 0 0 384 359" xml:space="preserve"><g i:extraneous="self"><g><path fill="#40D2DC" d="M128,321.8c21.3,0,21.3-15,42.7-15c21.3,0,21.3,15,42.7,15c21.3,0,21.3-15,42.7-15
				c10.8,0,16.1,3.8,21.5,7.6l37.9-70.9c10.6-19.8,12.6-43.1,5.7-64.5l-12.6-38.6l20.9-37.7l6.3,3.4l16.6-31.1l-60.2-32.2L275.5,74
				l6.3,3.4l-20.9,37.7l-39.1,11c-21.6,6.1-39.8,20.7-50.4,40.5L95.6,308.3C107.4,312.1,110.8,321.8,128,321.8L128,321.8z
				 M128,321.8"/><path fill="#66DBE3" d="M291.7,140.1l12.6,38.6c7,21.4,4.9,44.6-5.7,64.5l-34.5,64.5c5.8,1.4,9.6,4.1,13.4,6.8l37.9-70.9
				c10.6-19.8,12.6-43.1,5.7-64.5l-12.6-38.6l20.9-37.7l6.3,3.4l16.6-31.1L339.1,68l-9.5,17.8l-47-25.1L275.5,74l40.7,21.7
				L291.7,140.1z M291.7,140.1"/><path fill="#40D2DC" d="M344.7,71.1l-45-24L319,7.7l47.6,25.5L344.7,71.1z M344.7,71.1"/><path fill="#66DBE3" d="M353,25.8l-14.4,24.9l-32.2-17.2L299.7,47l45,24l22-37.9L353,25.8z M353,25.8"/><path fill="#40D2DC" d="M170.7,306.8c21.3,0,21.3,15,42.7,15c19.1,0,21.1-12,36.6-14.5l19.8-37l-23.8-12.7l15.4-28.8
				c0.1-0.1,0.1-0.2,0.2-0.3l0,0c8.6-16.1,2.5-36.1-13.5-44.7c-16.1-8.6-36.1-2.5-44.7,13.6c0,0.1-0.1,0.1-0.1,0.2
				c0,0.1-0.1,0.1-0.1,0.2l-65.7,122.9C150,317.1,153,306.8,170.7,306.8L170.7,306.8z M170.7,306.8"/><path fill="#fff" d="M330.6,209.7c0.2-4.4,0.2-8.9-0.3-13.3l-11.2,1.1c0.4,3.9,0.4,7.8,0.2,11.6L330.6,209.7z M330.6,209.7"/><path fill="#fff" d="M176.3,169.3c4.9-9.2,11.7-17.3,19.8-23.8c8-6.4,17.3-11.2,27.2-14c3.4-1,6.8-1.9,10.2-2.9
				c6.4-1.8,12.7-3.6,19.1-5.4c4-1.1,8-2.2,11.9-3.4c0.1,0,0.1,0,0.2-0.1L284,85l37.7,20.1l-19.3,34.8l13.4,41c0.5,1.6,1,3.3,1.5,5
				l10.9-2.8c-0.5-1.9-1.1-3.9-1.7-5.8l-11.8-36.3l17.1-30.7l6.4,3.4l21.9-41l-7.4-4l22-37.9L316.5,0l-19.3,39.3l-7.4-4l-21.9,41
				l6.2,3.3l-17,30.7c-4.1,1.1-8.2,2.3-12.3,3.4c-6.6,1.8-13.2,3.7-19.7,5.5c-6.1,1.7-12.1,3.5-17.9,6.2
				c-10.2,4.7-19.4,11.4-27.1,19.5c-5.6,5.9-10.2,12.5-14,19.6c-1.7,3.2-3.4,6.3-5.1,9.5c-3,5.7-6.1,11.3-9.1,17
				c-3.4,6.5-6.9,12.9-10.3,19.4c-3,5.6-6,11.1-8.9,16.7c-1.6,3-3.2,5.9-4.7,8.9c-0.1,0.1-0.1,0.3-0.2,0.4l9.9,5.3L176.3,169.3z
				 M321.5,15.4l37.4,20l-16.3,28.1l-35.4-18.9L321.5,15.4z M294.4,50.6l49.9,26.7c0,0,0.3,0.1,0.4,0.2l-11.3,21.2l-50.3-26.9
				L294.4,50.6z M294.4,50.6"/><path fill="#fff" d="M117.1,256.4l5.3-9.9l9.9,5.3l-5.3,9.9L117.1,256.4z M117.1,256.4"/><path fill="#66DBE3" d="M243.8,137.4l10.8-3l3,10.8l-10.8,3.1L243.8,137.4z M243.8,137.4"/><path fill="#66DBE3" d="M226.3,142.3c-1.5,0.4-3.1,0.9-4.6,1.5l3.8,10.6c3.4-1.2,6.9-2.1,10.4-3.1l-3-10.8L226.3,142.3z
				 M226.3,142.3"/><path fill="#66DBE3" d="M200.7,156.3l7.4,8.4c2.6-2.2,5.3-4.3,8.2-6l-5.7-9.7C207.1,151.2,203.7,153.6,200.7,156.3L200.7,156.3z
				 M200.7,156.3"/><path fill="#fff" d="M298.7,347.7c-4.8,0-9.3-1-13.5-3.4c-3.4-2-6.4-4.5-9.7-6.5c-8.6-5.1-19.2-6.4-28.9-4.1
				c-4.1,1-8,2.8-11.5,5.1c-3.3,2.1-6.4,4.7-9.9,6.4c-4.5,2.3-9.7,2.8-14.7,2.4c-4.6-0.4-8.6-1.9-12.4-4.4c-3.2-2.1-6.3-4.5-9.7-6.3
				c-4.1-2.2-8.6-3.5-13.2-3.9c-5.4-0.5-11.1-0.2-16.4,1.5c-3.9,1.2-7.4,3.2-10.7,5.4c-3.3,2.3-6.5,4.8-10.3,6.3
				c-4.8,1.8-10.4,2.1-15.4,1.2c-4.4-0.8-8-2.9-11.6-5.4c-3.1-2.2-6.3-4.4-9.8-6c-4.5-2.1-9.4-3-14.4-3.2
				c-5.2-0.1-10.5,0.5-15.4,2.4c-3.6,1.4-6.9,3.5-10,5.7c-3.4,2.4-6.8,4.8-10.9,5.9c-2.5,0.7-5.1,0.9-7.7,0.9V359
				c5.9,0,11.7-1.1,16.9-3.7c4.1-2,7.6-4.9,11.4-7.3c2.1-1.3,4.3-2.4,6.7-3c3-0.8,6.2-1,9.3-0.9c2.9,0.1,5.7,0.6,8.4,1.7
				c2.2,0.9,4.3,2.2,6.3,3.5c3.8,2.6,7.4,5.3,11.6,7.1c5.7,2.4,11.9,3,18,2.6c5.5-0.4,10.7-1.9,15.5-4.6c4-2.3,7.5-5.3,11.5-7.5
				c5.2-2.8,11.2-3.3,17-2.6c2.6,0.4,5.2,1.1,7.5,2.3c2.2,1.1,4.1,2.5,6.1,3.9c3.8,2.6,7.6,5.1,12,6.6c5.9,2,12.5,2.4,18.7,1.5
				c5.1-0.7,9.9-2.6,14.3-5.3c3.9-2.5,7.5-5.6,11.7-7.4c5.4-2.3,11.9-2.5,17.5-1.1c4.8,1.2,8.6,4,12.5,6.8c3.9,2.7,8.1,5,12.7,6.2
				c6.1,1.6,12.9,1.7,19.1,0.4c4.8-1,9.2-3.1,13.3-5.9c3.9-2.6,7.6-5.6,12.1-7.1c2.8-0.9,5.7-1.2,8.6-1.2v-11.3
				c-6.6,0-12.9,1.4-18.7,4.7c-4.5,2.6-8.4,6.2-13.1,8.3C306.1,347.2,302.4,347.7,298.7,347.7L298.7,347.7z M298.7,347.7"/><path fill="#fff" d="M365.9,309.7c-4.1-2.9-8.2-5.5-13-6.9c-6.5-2-13.7-2.1-20.3-0.7c-5.2,1.1-9.8,3.4-14.1,6.4
				c-4.3,2.9-8.3,6-13.5,7.1c-6.8,1.5-14.2,0.6-20.2-3c1.4-2.6,2.8-5.2,4.1-7.8c3.2-6,6.5-12.1,9.7-18.1c3.7-6.9,7.4-13.8,11.1-20.7
				c2.8-5.3,5.6-10.5,8.4-15.8c2.8-5.3,5.5-10.5,7.5-16.2c0.6-1.8,1.2-3.5,1.7-5.3c0.5-1.9,1-3.9,1.4-5.8l-11-2.3
				c-1.5,7.1-4,14-7.4,20.4c-0.4,0.7-0.8,1.5-1.2,2.2c-2.5,4.7-25.2,47.2-28.6,53.5c-1.7,3.2-3.4,6.4-5.1,9.5c0,0,0,0.1-0.1,0.1
				c-4.9-2.9-10.3-4.6-16-5l17.8-33.4l-57.9-30.9c-8.4-4.5-13.9-13.2-14.4-22.7c-0.5-10.1,4.8-19.9,13.6-24.9
				c10.3-5.8,23.4-4.3,32.1,3.7c8.6,7.9,11.2,20.8,6.4,31.4c-1,2.3-2.3,4.5-3.5,6.7c-1.4,2.6-2.7,5.1-4.1,7.7
				c-0.1,0.2-0.2,0.3-0.3,0.5l9.9,5.3c2.1-3.9,4.2-7.8,6.3-11.7c0.3-0.6,0.7-1.2,1-1.8l0,0c6-11.2,6-25,0.1-36.3
				c-6.7-12.7-20.4-20.8-34.8-20.6c-7.6,0.1-15.1,2.5-21.3,6.8c-5.2,3.6-9.3,8.4-12.3,14c-1.2,2.3-2.4,4.5-3.6,6.8
				c-2.9,5.5-5.9,11-8.8,16.5c-4,7.5-8,15-12,22.5c-4.4,8.2-8.8,16.4-13.1,24.6c-4.1,7.7-8.3,15.5-12.4,23.2c-3.2,6-6.4,12-9.6,17.9
				c-1.6,3-3.2,5.9-4.8,8.9c-0.1,0.1-0.1,0.3-0.2,0.4c-4.5,0.8-9.5,0.7-13.9-0.6c-3.4-1-6.4-3-9.3-5c-2.3-1.6-4.6-3.2-7.1-4.6
				l18.2-34.1l-9.9-5.3l-19,35.6c-7.4-1.3-15.3-0.7-22.2,2.2c-5.2,2.2-9.4,5.9-14.2,8.7c-6,3.5-13.5,4.3-20.3,2.8
				c-5.7-1.3-10.1-5.1-14.9-8.2c-2.7-1.7-5.5-3.2-8.6-4.3c-4-1.4-8.3-1.9-12.5-1.9v11.3c5.3,0,10.1,1.3,14.6,4.1
				c3.6,2.3,6.9,5,10.7,6.9c4.6,2.4,9.7,3.7,15,3.9c5.8,0.3,11.6-0.4,17-2.6c3.9-1.6,7.4-4,10.8-6.4c3.9-2.8,7.9-5,12.8-5.6
				c5.8-0.8,11.8-0.2,17,2.6c4.2,2.2,7.8,5.4,12,7.8c4.5,2.5,9.5,3.9,14.6,4.3c5.8,0.4,11.8-0.1,17.3-2.2c4-1.5,7.5-3.8,10.9-6.2
				c2-1.4,4-2.8,6.2-3.9c2.3-1.2,4.8-1.9,7.4-2.3c5.5-0.8,11.4-0.3,16.4,2.2c3.8,1.9,7.1,4.7,10.7,7c9.2,5.7,20.9,7.1,31.3,4.1
				c4.2-1.2,8.1-3.4,11.7-5.9c3.7-2.5,7.3-5.3,11.6-6.6c2.7-0.8,5.6-1.1,8.5-1.1c3,0,6,0.4,8.9,1.4c4.2,1.5,7.8,4.3,11.3,6.8
				c1,0.7,2,1.4,3,2.1l0.1-0.2c7,4.1,15.1,5.4,23.2,4.7c3.9-0.3,7.7-1.2,11.2-2.8c2.8-1.2,5.4-2.9,7.9-4.6c2.6-1.8,5.2-3.8,8.2-5.2
				c3.6-1.7,7.5-2.2,11.4-2.2c3.9,0,7.8,0.7,11.4,2.4c2.9,1.4,5.5,3.4,8.1,5.2c2.6,1.8,5.2,3.4,8.1,4.6c3.6,1.5,7.4,2.4,11.3,2.7
				c1.2,0.1,2.4,0.1,3.6,0.1v-11.3C375.1,316.2,371,313.4,365.9,309.7L365.9,309.7z M231.4,309.7c-2.1,1.5-4.2,2.9-6.5,4.1
				c-2.5,1.2-5.2,2-8,2.2c-6,0.6-12-0.2-17.2-3.3c-4.1-2.4-7.7-5.5-11.9-7.6c-5.4-2.8-11.4-3.9-17.4-3.9c-6.7,0-13.2,1.6-19,5
				l43.9-82.2c2.9,9.5,9.3,17.9,18.8,23l48,25.6l-15.9,29.7C239.7,303.9,235.4,306.9,231.4,309.7L231.4,309.7z M231.4,309.7"/></g></g></svg>
