					<svg id="Capa_1" enable-background="new 0 0 502 502" height="512" viewBox="0 0 502 502" width="512"
						xmlns="http://www.w3.org/2000/svg"
						xmlns:xlink="http://www.w3.org/1999/xlink">
						<linearGradient id="lg1">
							<stop offset="0" stop-color="#2FBFD1"/>
							<stop offset="1" stop-color="#66DBE3"/>
						</linearGradient>
						<linearGradient id="SVGID_1_" gradientUnits="userSpaceOnUse" x1="209.828" x2="209.828" xlink:href="#lg1" y1="486.89" y2="58.763"/>
						<linearGradient id="SVGID_2_" gradientUnits="userSpaceOnUse" x1="409.157" x2="409.157" y1="169.858" y2="5.08">
							<stop offset="0" stop-color="#ac6c58"/>
							<stop offset="1" stop-color="#da9b8c"/>
						</linearGradient>
						<linearGradient id="SVGID_3_" gradientUnits="userSpaceOnUse" x1="362.647" x2="362.647" xlink:href="#lg1" y1="212.417" y2="72.826"/>
						<linearGradient id="lg2">
							<stop offset="0" stop-color="#f4d952"/>
							<stop offset="1" stop-color="#f9edaf"/>
						</linearGradient>
						<linearGradient id="SVGID_4_" gradientUnits="userSpaceOnUse" x1="162.787" x2="162.787" xlink:href="#lg2" y1="355.166" y2="173.214"/>
						<linearGradient id="SVGID_5_" gradientUnits="userSpaceOnUse" x1="194.64" x2="194.64" xlink:href="#lg2" y1="498.174" y2="316.165"/>
						<g>
							<path d="m348.808 249.026 70.847-70.847-95.834-95.834-70.847 70.847c-12.077 12.077-28.985 18.016-45.962 16.145l-21.816-2.405c-16.977-1.872-33.885 4.067-45.962 16.145l-120.238 120.237c-25.328 25.328-25.328 66.394 0 91.722l87.968 87.968c25.328 25.328 66.394 25.328 91.722 0l120.238-120.238c12.077-12.077 18.016-28.985 16.145-45.962l-2.405-21.816c-1.872-16.977 4.067-33.885 16.144-45.962z" fill="url(#SVGID_1_)"/>
							<path d="m492.085 90.498-80.583-80.583c-15.75-15.75-42.158-12.252-53.265 7.055l-41.924 72.882 95.834 95.834 72.882-41.924c19.308-11.106 22.806-37.514 7.056-53.264z" fill="url(#SVGID_2_)"/>
							<path d="m385.787 211.707-95.494-95.494c-8.985-8.985-8.985-23.553 0-32.539l16.676-16.676c8.985-8.985 23.553-8.985 32.539 0l95.494 95.494c8.985 8.985 8.985 23.553 0 32.539l-16.676 16.676c-8.985 8.986-23.554 8.986-32.539 0z" fill="url(#SVGID_3_)"/>
							<path d="m268.986 260.714-45.633-45.633c-10.039-10.039-26.315-10.039-36.353 0l-130.412 130.412c-10.039 10.039-10.039 26.315 0 36.353l45.633 45.633c10.039 10.039 26.315 10.039 36.353 0l130.412-130.412c10.039-10.039 10.039-26.315 0-36.353z" fill="url(#SVGID_4_)"/>
							<path d="m310.254 280.925-43.406-43.406c-10.654-10.654-27.927-10.654-38.58 0l-149.242 149.242c-10.654 10.654-10.654 27.927 0 38.58l43.406 43.406c10.654 10.654 27.927 10.654 38.58 0l149.242-149.242c10.653-10.654 10.653-27.927 0-38.58z" fill="url(#SVGID_5_)"/>
							<g>
								<ellipse cx="147.781" cy="430.563" fill="#eaadcd" rx="14.936" ry="12.003" transform="matrix(.707 -.707 .707 .707 -261.171 230.607)"/>
								<ellipse cx="272.07" cy="306.274" fill="#eaadcd" rx="14.936" ry="12.003" transform="matrix(.707 -.707 .707 .707 -136.881 282.091)"/>
								<circle cx="144.945" cy="391.513" fill="#fff" r="29.618"/>
								<ellipse cx="153.406" cy="383.053" fill="#3b3b44" rx="17.652" ry="17.652" transform="matrix(.851 -.526 .526 .851 -178.472 137.859)"/>
								<circle cx="233.02" cy="303.438" fill="#fff" r="29.618"/>
								<g fill="#3b3b44">
									<ellipse cx="241.437" cy="295.021" rx="17.652" ry="17.652" transform="matrix(.957 -.29 .29 .957 -75.133 82.624)"/>
									<path d="m214.229 353.981c6.776 6.776 8.074 16.465 2.899 21.64s-14.864 3.877-21.64-2.899-8.075-16.465-2.899-21.64c5.175-5.175 14.864-3.877 21.64 2.899z"/>
								</g>
							</g>
							<g fill="#dff7fa">
								<path d="m112.354 263.234c-2.56 0-5.118-.976-7.071-2.929-3.905-3.905-3.905-10.237 0-14.142l7.636-7.636c3.904-3.905 10.236-3.906 14.143 0 3.905 3.905 3.905 10.237 0 14.142l-7.636 7.636c-1.952 1.953-4.512 2.929-7.072 2.929z"/>
								<path d="m56.168 319.42c-2.56 0-5.118-.976-7.071-2.929-3.905-3.905-3.905-10.237 0-14.142l27.685-27.684c3.907-3.905 10.237-3.904 14.142 0 3.905 3.905 3.905 10.237 0 14.142l-27.684 27.684c-1.954 1.953-4.513 2.929-7.072 2.929z"/>
							</g>
							<path d="m457.629 139.865-37.473-37.473c-6.248-6.248-16.379-6.248-22.627 0-6.248 6.248-6.248 16.379 0 22.627l37.473 37.473c2.144 2.144 3.761 4.611 4.882 7.239l27.839-16.014c-2.589-5.049-5.966-9.724-10.094-13.852z" fill="#a86455"/>
						</g>
					</svg>