<svg xmlns="http://www.w3.org/2000/svg" width="16.539" height="14.348" viewBox="0 0 16.539 14.348"><defs><style>.a{fill:#d8d8d8;}</style></defs><circle class="a" cx="0.87" cy="0.87" r="0.87" transform="translate(2.243 4.417)"/><path class="a" d="M16.448,10.974H14.535a.1.1,0,0,1-.087-.052l-.591-1.183a1.677,1.677,0,0,0-1.53-.939H9.2a1.693,1.693,0,0,0-1.53.957l-.591,1.165a.1.1,0,0,1-.087.052H5.074A2.564,2.564,0,0,0,2.5,13.53v7.043a2.579,2.579,0,0,0,2.574,2.574H16.465a2.579,2.579,0,0,0,2.574-2.574V13.53A2.591,2.591,0,0,0,16.448,10.974Zm1.357,9.6a1.358,1.358,0,0,1-1.357,1.357H5.074a1.358,1.358,0,0,1-1.357-1.357V13.53a1.358,1.358,0,0,1,1.357-1.357H7a1.268,1.268,0,0,0,1.165-.73l.591-1.183a.5.5,0,0,1,.452-.278h3.13a.5.5,0,0,1,.452.278l.591,1.183a1.306,1.306,0,0,0,1.165.73h1.93a1.358,1.358,0,0,1,1.357,1.357v7.043Z" transform="translate(-2.5 -8.8)"/><path class="a" d="M31.165,31.8a3.965,3.965,0,1,0,3.965,3.965A3.963,3.963,0,0,0,31.165,31.8Zm0,6.713a2.748,2.748,0,1,1,2.748-2.748A2.754,2.754,0,0,1,31.165,38.513Z" transform="translate(-22.904 -27.8)"/></svg>