<?xml version="1.0" encoding="utf-8"?>
<!-- Generator: Adobe Illustrator 18.1.0, SVG Export Plug-In . SVG Version: 6.00 Build 0)  -->
<svg version="1.1" id="Layer_1" xmlns="http://www.w3.org/2000/svg" xmlns:xlink="http://www.w3.org/1999/xlink" x="0px" y="0px"
	 viewBox="0 0 84.7 23.1" enable-background="new 0 0 84.7 23.1" xml:space="preserve">
<path fill-rule="evenodd" clip-rule="evenodd" fill="#F1F2F2" d="M84.7,23.1c-1-3.8-4.5-6.7-8.7-6.7c-0.2,0-0.4,0-0.6,0
	c-0.9-3.8-4.3-6.7-8.4-6.7c-2.3,0-4.4,0.9-6,2.4c-1.3-3.8-4.8-6.5-9-6.5c-0.3,0-0.6,0-0.9,0C49.4,2.3,45.9,0,41.9,0
	c-4.7,0-8.7,3.2-9.9,7.6C31,7.2,30,7,28.8,7c-3.2,0-6,1.9-7.4,4.6c-1.2-0.6-2.6-1-4.1-1c-4.1,0-7.5,2.7-8.4,6.3c-0.3,0-0.5,0-0.8,0
	c-3.9,0-7.2,2.6-8.2,6.2H84.7z"/>
</svg>
