<?xml version="1.0"?>
<svg xmlns="http://www.w3.org/2000/svg" xmlns:xlink="http://www.w3.org/1999/xlink" xmlns:svgjs="http://svgjs.com/svgjs" version="1.1" width="512" height="512" x="0" y="0" viewBox="0 0 58 58" style="enable-background:new 0 0 512 512" xml:space="preserve" class=""><g><g xmlns="http://www.w3.org/2000/svg" id="Page-1" fill="none" fill-rule="evenodd"><g id="036---Octopus" fill-rule="nonzero" transform="translate(-1)"><path id="Shape" d="m30 40v10c0 3-1 8-7 8-6.1 0-6.016-3.11-5.931-2.987z" fill="#068ea9" data-original="#5d4c72" style="" class=""/><path id="Shape" d="m30 40v10c0 3 1 8 7 8 5.465 0 5.966-2.493 5.951-2.927z" fill="#08768b" data-original="#3d324c" style="" class=""/><path id="Shape" d="m20.022 28c-.19 2.589-1.379 7.488-8.022 7.488-7.69 0-6.62-5.11-4.28-6.6.29074877-.1815915.46822057-.4994553.47024893-.842247.00202835-.3427918-.17166946-.6627335-.46024893-.847753-.82516784-.4883814-1.77148408-.7337997-2.73-.708-3 0-4 4-4 6 0 2.134 1.15 14.61 21.9 9.122z" fill="#2fbfd1" data-original="#894b9d" style="" class=""/><path id="Shape" d="m39.945 27c-.013 1.975.394 8.49 8.055 8.49 7.69 0 6.62-5.11 4.28-6.6-.2907488-.1815915-.4682206-.4994553-.4702489-.842247-.0020284-.3427918.1716694-.6627335.4602489-.847753.8249604-.4890807 1.7712901-.7351958 2.73-.71 3 0 4 4 4 6 0 2.142-1.159 14.715-22.147 9.055z" fill="#2fbfd1" data-original="#894b9d" style="" class=""/><path id="Shape" d="m28.144 42.546c.3043513-.7580596 1.0391254-1.2548396 1.856-1.2548396s1.5516487.49678 1.856 1.2548396c4.499 10.954 11.944 15.454 17.144 15.454 6 0 10-2 10-8 .0771032-1.7344715-.3801654-3.4507995-1.31-4.917-.2625168-.4000679-.7716602-.5581001-1.2145685-.3769878-.4429083.1811122-.6954457.6506076-.6024315 1.1199878.427 2.744-.273 6.174-5.873 6.174-8 0-12-15-10-21 .209-.634.433-1.257.66-1.874.2889646-.727519.8724652-1.2986666 1.606-1.572 1.8114148-.7400832 3.1481413-2.3169785 3.5816219-4.2251297.4334807-1.9081513-.0907498-3.9078059-1.4046219-5.3578703-.4755656-.4938576-.7562007-1.1432259-.79-1.828-.0463588-1.7317629-.2651053-3.4546015-.653-5.143-2-9-8-11-13-11s-11 2-13 11c-.3878947 1.6883985-.6066412 3.4112371-.653 5.143-.0337993.6847741-.3144344 1.3341424-.79 1.828-1.3138721 1.4500644-1.8381026 3.449719-1.4046219 5.3578703.4334806 1.9081512 1.7702071 3.4850465 3.5816219 4.2251297.7335348.2733334 1.3170354.844481 1.606 1.572.227.617.451 1.24.66 1.874 2 6-2 21-10 21-5.6 0-6.3-3.43-5.873-6.174.09301424-.4693802-.15952316-.9388756-.6024315-1.1199878-.44290835-.1811123-.95205166-.0230801-1.2145685.3769878-.92983463 1.4662005-1.3871032 3.1825285-1.31 4.917 0 6 4 8 10 8 5.2 0 12.645-4.5 17.144-15.454z" fill="#40d2dc" data-original="#955ba5" style="" class=""/><path id="Shape" d="m28 5.151c-.5205067-.00140428-.9528966-.4018589-.9941555-.9207297-.041259-.51887081.3224116-.98262566.8361555-1.0662703.7138006-.11219832 1.4354417-.16704037 2.158-.164.5522847 0 1 .44771525 1 1s-.4477153 1-1 1c-.6163615-.00307305-1.2319844.04307359-1.841.138-.052552.00870071-.1057326.0130488-.159.013z" fill="#b3e7eb" data-original="#b49aca" style="" class=""/><path id="Shape" d="m20.9 12.874c-.3034776.0002514-.5906495-.1373237-.7806334-.3739771s-.2622214-.5467766-.1963666-.8430229c.4063491-2.47080835 1.6053281-4.74241022 3.416-6.472.4164227-.36285108 1.0481489-.3194227 1.411.097s.3194227 1.04814892-.097 1.411c-1.4818695 1.45483791-2.4556324 3.3483632-2.777 5.4-.1024937.4566467-.5079924.7811288-.976.781z" fill="#b3e7eb" data-original="#b49aca" style="" class=""/><circle id="Oval" cx="18" cy="22" fill="#ecf0f1" r="4" data-original="#ecf0f1" style="" class=""/><circle id="Oval" cx="42" cy="22" fill="#ecf0f1" r="4" data-original="#ecf0f1" style="" class=""/><circle id="Oval" cx="19" cy="22" fill="#5e4a5e" r="2" data-original="#3f5c6c" style="" class=""/><circle id="Oval" cx="41" cy="22" fill="#5e4a5e" r="2" data-original="#3f5c6c" style="" class=""/><circle id="Oval" cx="7" cy="14" fill="#816881" r="3" data-original="#3b97d3" style="" class=""/><circle id="Oval" cx="13" cy="6" fill="#816881" r="2" data-original="#3b97d3" style="" class=""/><circle id="Oval" cx="7" cy="7" fill="#5e4a5e" r="1" data-original="#2980ba" style="" class=""/><circle id="Oval" cx="53" cy="14" fill="#816881" r="3" data-original="#3b97d3" style="" class=""/><circle id="Oval" cx="47" cy="6" fill="#816881" r="2" data-original="#3b97d3" style="" class=""/><circle id="Oval" cx="53" cy="7" fill="#5e4a5e" r="1" data-original="#2980ba" style="" class=""/><path id="Shape" d="m30 38c-.5522847 0-1-.4477153-1-1v-2c0-.5522847.4477153-1 1-1s1 .4477153 1 1v2c0 .5522847-.4477153 1-1 1z" fill="#2fbfd1" data-original="#894b9d" style="" class=""/><g fill="#ecf0f1"><circle id="Oval" cx="17" cy="21" r="1" fill="#ecf0f1" data-original="#ecf0f1" style="" class=""/><circle id="Oval" cx="43" cy="21" r="1" fill="#ecf0f1" data-original="#ecf0f1" style="" class=""/></g></g></g></g></svg>
