<?xml version="1.0" encoding="utf-8"?>
<!-- Generator: Adobe Illustrator 18.0.0, SVG Export Plug-In . SVG Version: 6.00 Build 0)  -->
<!DOCTYPE svg PUBLIC "-//W3C//DTD SVG 1.1//EN" "http://www.w3.org/Graphics/SVG/1.1/DTD/svg11.dtd">
<svg version="1.1" xmlns="http://www.w3.org/2000/svg" xmlns:xlink="http://www.w3.org/1999/xlink" x="0px" y="0px"
	 viewBox="0 0 800 800" enable-background="new 0 0 800 800" xml:space="preserve">
<g id="Background">
	<rect y="0" fill="#40D2DC" width="800" height="800"/>
	<path opacity="0.2" fill="#8CE4EA" d="M0,0v800h800V0H0z M404,633c-36.7,36.7-87.1,57.6-139,57.6S162.7,669.7,126,633
		c-36.7-36.7-57.6-87.1-57.6-139S89.3,391.7,126,355c36.7-36.7,87.1-57.6,139-57.6s102.3,20.9,139,57.6
		c36.7,36.7,57.6,87.1,57.6,139S440.7,596.3,404,633z"/>
	<path opacity="0.2" fill="#66DBE3" d="M0,0v168.1c74.7-60.7,169.1-94.6,266-94.6c111.3,0,219.3,44.8,298,123.4
		s123.4,186.7,123.4,298c0,111.3-44.8,219.3-123.4,298c-2.4,2.4-4.7,4.7-7.2,7H800V0H0z"/>
	<path opacity="0.2" fill="#7DE4FA" d="M702.3,58.7c38.2,38.2,71,81.2,97.7,127.5V0H634.3C658.3,17.8,681,37.4,702.3,58.7z"/>
	<path fill="#87E2E5" d="M736.7,800H800v-82.9C782.2,746.9,761.1,774.8,736.7,800z"/>
	<path fill="#87E2E5" d="M0,689.6V800h78.4C46.8,767.1,20.4,729.8,0,689.6z"/>
	<rect y="613.6" fill="#2EC4D2" width="800" height="186.4"/>
	<path opacity="0.2" fill="#40D2DC" d="M74.6,722.7c17.2-2.1,34.4-4,51.3-6.6c-0.7,0-1.4,0-2.2,0c-20.9,0.3-41.8,0.7-62.6,0.1
		c-5.3-0.2-10.1-1.2-13.2-2.9c-16,0.7-31.9,1.5-47.9,2.2V746c0.4-0.4,0.9-0.8,1.5-1.2c9.8-6.2,24-10,40.6-11.7
		c6.7-0.7,13.6-1.2,20.4-1.7c-0.2-0.5-0.3-0.9-0.3-1.4C62.2,726.6,67.3,723.6,74.6,722.7z"/>
	<path fill="#4FA99A" d="M326.8,800c0.3-0.9,0.6-1.7,1-2.5c-13.7,1-27.4,1.9-41.1,2.5H326.8z"/>
	<path opacity="0.2" fill="#4194B5" d="M742.4,738.1c7.8,1.2,13.2,4.8,12.2,8.3c0.8,0,1.7,0,2.5-0.1c16.2-0.3,24,10.8,8.5,14
		c-39.6,8-82.6,9.8-125.5,11c1.3,2.8-0.8,5.9-8,7.5c-5.7,1.3-11.6,2.6-17.4,3.8c1.5,0.1,2.9,0.3,4.4,0.4c7.3,0.8,12.4,4,12.4,7.2
		c0,3.5-5.2,6.2-12.4,7.2c-7.5,1.1-15.2,1.9-23,2.5H800v-66.9C780.9,735,761.7,736.7,742.4,738.1z"/>
	<path opacity="0.2" fill="#4194B5" d="M750.9,714.2c16.3-0.7,33-1.1,49.1,0.1V688c-1.3,0-2.6,0-3.9,0.1c-0.7,0-1.4,0.1-2,0.1
		c-0.7,0-1.9,0.1-2.3,0.2c-2.2,0.2-4.4,0.4-6.5,0.6c-10.1,1.1-20,2.5-29.6,4.3c5.5,0.9,10.6,2.3,14.9,4.3c6.2,2.9,6.9,7.8,0,10.6
		C764.5,710.5,757.9,712.5,750.9,714.2z"/>
	<path opacity="0.2" fill="#4194B5" d="M224.6,799.1c-9.2-0.5-16.9-3-16.9-7.5c0-3.3,5.2-6.4,12.4-7.2c12-1.4,24.3-2,36.6-2.4
		c-0.5,0-0.9,0-1.4-0.1c-25.7-1-51.6-1.2-77.2-2.7c-9.2-0.5-16.9-3-16.9-7.5c0-0.2,0-0.5,0.1-0.7c-11.9-0.4-23.8-1-35.7-2
		c-7.3-0.6-12.4-4.1-12.4-7.2c0-1.2,0.6-2.2,1.6-3.1c-34.6,0.7-69,0.7-103.1-2.9c-5.5-0.6-9.8-2.6-11.6-4.9V800h247
		C239.5,799.8,232.1,799.6,224.6,799.1z"/>
	<g id="Objects">
		<g>
			<g>
				<g>
					<path fill="#91581F" d="M467.2,466.2c-0.8,0.1-3.6,2.3-3,3.6c0.6,1.3,2.4,1.7,3.2,1.6c0.9-0.2,2.6-1.5,2.3-2.4
						C469.5,468.1,468.8,466.4,467.2,466.2z"/>
					<path fill="#91581F" d="M470.5,467.8c-0.8,0-4.4,2.3-3.9,3.7c0.5,1.3,2.6,3.2,3.5,3.1c0.9-0.1,3.3-1.5,3-2.4
						C472.9,471.3,472,468.1,470.5,467.8z"/>
					<path fill="#91581F" d="M473.5,471.5c-0.8,0-5.3,2.4-4.8,3.7c0.5,1.3,2.9,4.6,3.8,4.5c0.9-0.1,4-1.5,3.8-2.4
						C476,476.5,475.1,471.9,473.5,471.5z"/>
					<path fill="#91581F" d="M478.1,476.3c-0.8,0-6.1,2.4-5.7,3.8c0.4,1.3,3.1,6.1,4,6c0.9-0.1,4.6-1.5,4.5-2.4
						C480.7,482.8,479.5,476.7,478.1,476.3z"/>
					<path fill="#91581F" d="M482.2,482.8c-0.8,0-7,2.5-6.6,3.8c0.4,1.4,3.4,7.6,4.3,7.5c0.9,0,5.3-1.5,5.2-2.4
						C485,490.8,483.7,483.3,482.2,482.8z"/>
					<path fill="#91581F" d="M486.6,490.4c-0.7-0.1-7.8,2.5-7.5,3.9c0.3,1.4,3.7,9,4.5,9c0.9,0,6-1.6,5.9-2.5
						C489.4,499.9,488.1,490.9,486.6,490.4z"/>
					<path fill="#91581F" d="M491.3,498.7c-0.7-0.1-8.7,2.6-8.4,4c0.3,1.4,3.9,10.5,4.8,10.5c0.9,0,6.7-1.6,6.6-2.5
						C494.3,509.8,492.8,499.3,491.3,498.7z"/>
					<path fill="#91581F" d="M495.1,509.6c-0.7-0.1-9.5,2.6-9.3,4c0.2,1.4,4.2,11.9,5.1,12c0.9,0.1,7.4-1.6,7.4-2.5
						C498.2,522.2,496.5,510.2,495.1,509.6z"/>
					<path fill="#91581F" d="M500.3,522c-0.7-0.2-10.4,2.7-10.2,4.1c0.2,1.4,4.5,13.4,5.3,13.5c0.9,0.1,8.1-1.6,8.1-2.5
						C503.5,536.1,501.7,522.7,500.3,522z"/>
					<path fill="#91581F" d="M504.7,535c-0.7-0.2-11.2,2.7-11.1,4.1c0.1,1.4,4.7,14.8,5.6,14.9c0.9,0.1,8.8-1.6,8.8-2.6
						C508,550.6,506.1,535.7,504.7,535z"/>
					<path fill="#91581F" d="M510,549.2c-0.7-0.2-12.1,2.8-12,4.2c0.1,1.4,5,16.3,5.9,16.4c0.9,0.2,9.5-1.7,9.5-2.6
						C513.4,566.3,511.3,549.9,510,549.2z"/>
					<path fill="#91581F" d="M514.7,565.2c-0.7-0.2-12.9,2.8-12.9,4.2c0,1.4,5.3,17.7,6.1,17.9c0.9,0.2,10.1-1.7,10.2-2.6
						C518.3,583.9,516.1,566.1,514.7,565.2z"/>
				</g>
				<g opacity="0.3">
					<path fill="#91581F" d="M464.9,467.8c-0.6,0.7-1,1.4-0.8,2c0.6,1.3,2.4,1.7,3.2,1.6c0.2,0,0.4-0.1,0.7-0.3
						C467.2,469.9,466.1,468.8,464.9,467.8z"/>
					<path fill="#91581F" d="M467.2,470c-0.5,0.5-0.8,1.1-0.6,1.5c0.5,1.3,2.6,3.2,3.5,3.1c0.1,0,0.3-0.1,0.4-0.1
						C469.5,472.9,468.4,471.4,467.2,470z"/>
					<path fill="#91581F" d="M469.9,473.5c-0.8,0.6-1.3,1.3-1.2,1.8c0.5,1.3,2.9,4.6,3.8,4.5c0.2,0,0.5-0.1,0.8-0.2
						C472.3,477.5,471.2,475.4,469.9,473.5z"/>
					<path fill="#91581F" d="M473,478.9c-0.5,0.4-0.7,0.8-0.6,1.2c0.4,1.3,2.9,5.6,3.9,6C475.2,483.6,474.1,481.2,473,478.9z"/>
					<path fill="#91581F" d="M476.1,485.8c-0.3,0.3-0.5,0.6-0.5,0.9c0.4,1.4,3.4,7.6,4.3,7.5c0,0,0,0,0.1,0
						C478.5,491.5,477.3,488.6,476.1,485.8z"/>
					<path fill="#91581F" d="M484.5,499.5c-1-0.3-1.9-0.9-2.7-2.1c-0.8-1.3-1.6-2.6-2.3-4c-0.4,0.3-0.6,0.6-0.5,0.9
						c0.3,1.4,3.7,9,4.5,9c0.4,0,1.7-0.3,3-0.8C486,501.5,485.3,500.5,484.5,499.5z"/>
					<path fill="#91581F" d="M485.4,500.7c-1.5,0.7-2.6,1.4-2.5,2c0.3,1.4,3.9,10.5,4.8,10.5c0.5,0,2.3-0.4,4-1
						C490.3,508.1,487.9,504.1,485.4,500.7z"/>
					<path fill="#91581F" d="M492.6,522.6c1-3.6,0.2-7.8-1.5-11.9c-2.6,0.9-5.5,2.2-5.4,3c0.2,1.4,4.2,11.9,5.1,12
						c0.3,0,1-0.1,1.9-0.3C492.5,524.4,492.4,523.6,492.6,522.6z"/>
					<path fill="#91581F" d="M498.2,537.3c-1.6-2.9-1.7-6.1-2-9.1c-1.8-0.5-3.4-2-3.6-3.9c-1.5,0.6-2.6,1.3-2.5,1.8
						c0.2,1.4,4.5,13.4,5.3,13.5c0.4,0,2.2-0.3,4-0.8C498.9,538.4,498.5,537.9,498.2,537.3z"/>
					<path fill="#91581F" d="M501.1,539.5c-1.1-0.2-2.2-0.9-2.9-2.2c-0.1-0.2-0.2-0.4-0.3-0.6c-2.4,0.8-4.4,1.7-4.4,2.4
						c0.1,1.4,4.7,14.8,5.6,14.9c0.4,0.1,2.5-0.3,4.6-0.9C502.9,548.8,502.4,544,501.1,539.5z"/>
					<path fill="#91581F" d="M508.4,557.3c-2,0-4.1-1.2-4.5-3.3c-0.2-1-0.4-2.1-0.6-3.2c-2.8,0.9-5.4,1.9-5.4,2.6
						c0.1,1.4,5,16.3,5.9,16.4c0.5,0.1,3.1-0.4,5.5-1C509.2,565,509.2,560.9,508.4,557.3z"/>
					<path fill="#91581F" d="M513.3,585.3c-0.4-2.5-0.3-6-0.5-9.1c-1.5-0.3-2.8-1.4-3.1-3.1c-0.3-2.1-0.4-4.4-0.4-6.7
						c-3.5,1-7.4,2.3-7.4,3.1c0,1.4,5.3,17.7,6.1,17.9c0.4,0.1,3.1-0.3,5.6-0.9C513.4,586.1,513.3,585.7,513.3,585.3z"/>
				</g>
				<path fill="#4AAE42" d="M466.8,463.6c0,0,15.9-12.7,37.4-13.4l-3.3,4.4c0,0,17.9-1.4,27.9,7.5c0,0-11.2,1.5-13.1,3.3
					c0,0,10.4,12.4,26.8,14.2c0,0-20.7,2.4-38.1-6.9c0,0,4.5,8.1,9.5,12c0,0-34.7-7.4-46.4-19.1c0,0,18-3.2,32.1,1.3
					C499.5,466.9,488.8,458.9,466.8,463.6z"/>
				<path opacity="0.3" fill="#4AAE42" d="M520.1,473.8c-5.6-1.1-10.9-3.3-16.5-4.8c-1,1.7-2.9,2.9-5.1,2.2
					c-5.2-1.6-11.2-5.3-16.8-4.2c-3.6,0.7-6.9,1.6-10.4,1.7c14,9.9,42.5,16,42.5,16c-5-3.9-9.5-12-9.5-12
					c17.4,9.2,38.1,6.9,38.1,6.9c-5.7-0.6-10.6-2.5-14.7-4.7C525.2,474.6,522.6,474.3,520.1,473.8z"/>
				<path fill="#4AAE42" d="M465.8,465.3c0,0-14.1-14.7-35.2-18.4l2.7,4.8c0,0-17.6-3.8-28.7,3.6c0,0,10.8,3,12.5,5
					c0,0-12,10.9-28.5,10.4c0,0,20.2,5.2,38.7-1.6c0,0-5.6,7.4-11,10.6c0,0,35.4-2.6,48.5-12.6c0,0-17.4-5.6-32-3.1
					C432.9,464.1,444.7,457.6,465.8,465.3z"/>
				<path opacity="0.3" fill="#4AAE42" d="M416.4,479.8c0,0,34.3-2.5,47.9-12.2c-0.4,0.2-0.9,0.3-1.4,0.3
					c-10.5,1.1-20.8,3.6-31.4,4.1c-3.6,0.2-5.6-4.5-3.8-7.1c-2.8,1.1-5.6,2.3-8.3,3.5c-4.2,1.8-8.6,3.1-13.1,4.2
					c6.4,0,13.8-0.9,21-3.5C427.4,469.2,421.8,476.6,416.4,479.8z"/>
				<path fill="#4AAE42" d="M466.4,462.4c0,0,14.6-17.3,36.7-16.3c0,0-2.3-3.4-4.2-3.4c0,0,12.2-10.2,30.7-5.3c0,0-3.6-8.5-25.1-8
					c0,0,1.4-4.8,5.8-6.7c0,0-21.8-1.4-33.6,10.9c0,0-2.5-3.2-1.1-5.8c0,0-17.6,11.1-10.7,35.1c0,0,0-18.4,14.5-24.7
					C479.5,438.1,469.8,445.9,466.4,462.4z"/>
				<path opacity="0.3" fill="#4AAE42" d="M514.3,432.8c-6.3,0-12.2,2-18.1,4c-0.5,0.2-1.1,0.3-1.5,0.3c-11,3.7-21.4,9.6-26.7,19.9
					c-0.5,1.7-1,3.5-1.4,5.4c0,0,14.6-17.3,36.7-16.3c0,0-2.3-3.4-4.2-3.4c0,0,12.2-10.2,30.7-5.3c0,0-0.2-0.5-0.8-1.2
					C524,435.1,519.3,432.8,514.3,432.8z"/>
				<path fill="#4AAE42" d="M465.1,471c0,0-7.2,21.5,5.2,39.9c0,0-4.1-0.2-5.1-1.8c0,0-2.4,15.8,11.4,29c0,0-9.1,1.4-19.9-17.3
					c0,0-3.4,3.7-2.7,8.4c0,0-12.5-17.9-8.2-34.4c0,0-4-0.4-5.5,2.1c0,0,0.3-20.8,24.5-27.4c0,0-15.7,9.5-13.6,25.2
					C451.1,494.8,452.8,482.5,465.1,471z"/>
				<path opacity="0.3" fill="#4AAE42" d="M465.1,509.1c1,1.5,5.1,1.8,5.1,1.8c-7.1-10.6-7.7-22.2-7-30.1c-1.2,6-1.9,12.1,0,18
					c1.1,3.4-1.8,5.7-4.6,5.6c-1.3,6.5-1.3,14.2,0.6,20.7c9.6,14.3,17.3,13.1,17.3,13.1C462.7,524.9,465.1,509.1,465.1,509.1z"/>
			</g>
			<path opacity="0.2" fill="#4194B5" d="M302.6,704.9c0,0,92.4,49.4,237.7,8.9c0,0-22,57-101.4,59s-87.2-18.1-116.3-33.9
				C293.6,723,302.6,704.9,302.6,704.9z"/>
			<path opacity="0.2" fill="#4194B5" d="M510.3,800c15.9-5.9,30-24.5,32.6-69.9c0,0-20.7,60.1-83.3,60.1c0,0,9.2,6.3,21.5,9.8
				H510.3z"/>
			<g>
				<g>
					<path fill="#7D501B" d="M538.6,406.8c-1.1-0.2-5.9,1.7-5.6,3.7c0.2,2,2.5,3.4,3.8,3.5c1.3,0.1,4.1-1,4.1-2.3
						C540.8,410.4,540.6,407.8,538.6,406.8z"/>
					<path fill="#7D501B" d="M542.4,410.5c-1.1-0.3-7.1,1.4-6.9,3.4c0.2,2,2.3,5.5,3.5,5.6c1.3,0.2,5.1-0.7,5.1-2
						C544.2,416.2,544.4,411.5,542.4,410.5z"/>
					<path fill="#7D501B" d="M545,416.8c-1-0.3-8.2,1.1-8.2,3.1c0.1,2,2,7.6,3.3,7.8c1.2,0.2,6-0.4,6.1-1.7
						C546.4,424.7,547,417.9,545,416.8z"/>
					<path fill="#7D501B" d="M549.3,425.2c-1-0.3-9.4,0.8-9.4,2.8c0,2,1.8,9.7,3,9.9c1.2,0.3,7-0.2,7.1-1.5
						C550.2,435.2,551.2,426.3,549.3,425.2z"/>
					<path fill="#7D501B" d="M552.3,435.9c-1-0.4-10.6,0.5-10.7,2.5c-0.1,2,1.6,11.8,2.8,12.1c1.2,0.3,7.9,0.1,8.1-1.2
						C552.8,448,554.2,437.1,552.3,435.9z"/>
					<path fill="#7D501B" d="M555.2,448.1c-1-0.4-11.8,0.3-11.9,2.3c-0.1,2,1.3,13.9,2.5,14.2c1.2,0.3,8.9,0.3,9.1-0.9
						C555.2,462.3,557,449.4,555.2,448.1z"/>
					<path fill="#7D501B" d="M558.3,461.5c-1-0.4-13,0-13.2,2c-0.2,2,1.1,16,2.3,16.4c1.2,0.4,9.8,0.6,10.1-0.7
						C557.8,477.8,560,462.8,558.3,461.5z"/>
					<path fill="#7D501B" d="M558.9,477.9c-1-0.5-14.2-0.3-14.4,1.7c-0.3,2,0.9,18.1,2,18.5c1.2,0.4,10.8,0.8,11.1-0.4
						C558,496.4,560.6,479.3,558.9,477.9z"/>
					<path fill="#7D501B" d="M560.9,497.1c-0.9-0.5-15.3-0.6-15.7,1.4c-0.4,2,0.6,20.2,1.8,20.7c1.2,0.5,11.8,1.1,12.1-0.1
						C559.5,517.7,562.6,498.5,560.9,497.1z"/>
					<path fill="#7D501B" d="M561.6,516.7c-0.9-0.6-16.5-0.9-17,1.1c-0.4,2,0.4,22.3,1.5,22.8c1.1,0.5,12.7,1.4,13.1,0.1
						C559.8,539.5,563.2,518.3,561.6,516.7z"/>
					<path fill="#7D501B" d="M563.1,538.3c-0.9-0.6-17.7-1.2-18.2,0.8c-0.5,2,0.2,24.4,1.3,24.9c1.1,0.6,13.7,1.6,14.1,0.4
						C560.7,563.2,564.6,540,563.1,538.3z"/>
					<path fill="#7D501B" d="M563,562.3c-0.9-0.6-18.9-1.5-19.5,0.5c-0.6,2-0.1,26.5,1.1,27.1c1.1,0.6,14.6,1.9,15.1,0.7
						C560.2,589.4,564.5,564,563,562.3z"/>
				</g>
				<g opacity="0.3">
					<path fill="#7D501B" d="M540.8,411.5c0-1.4-0.4-3.7-2.3-4.6c-0.2,0-0.5,0-0.8,0.1c0,0.4,0,0.8,0,1.2
						C538.9,409.2,539.9,410.3,540.8,411.5z"/>
					<path fill="#7D501B" d="M544.1,417.9c0.1-0.1,0.1-0.2,0.1-0.4c0-1.3,0.2-6-1.8-7c-0.3-0.1-1.2,0-2.2,0.3
						C541.9,412.8,543.2,415.2,544.1,417.9z"/>
					<path fill="#7D501B" d="M544.8,421.6c0.2,2,0.2,3.8-0.2,5.6c0.9-0.3,1.6-0.7,1.6-1.2c0.1-1.3,0.7-8.1-1.3-9.2
						c-0.2-0.1-0.7,0-1.3,0C544.3,418.3,544.6,419.9,544.8,421.6z"/>
					<path fill="#7D501B" d="M544.1,429.5c0.2,0.2,0.3,0.4,0.5,0.6c2.4,2.5,3.6,4.8,4,7.3c0.8-0.2,1.4-0.6,1.4-0.9
						c0.1-1.3,1.1-10.1-0.8-11.3c-0.5-0.1-2.4,0-4.4,0.4C544.8,426.9,544.5,428.2,544.1,429.5z"/>
					<path fill="#7D501B" d="M547.8,446c-0.4,1.4,0.1,2.9,0.9,4.5c2-0.2,3.9-0.6,4-1.2c0.2-1.3,1.6-12.2-0.2-13.4
						c-0.4-0.1-2.1-0.1-4,0.1C549.2,439,548.8,442.1,547.8,446z"/>
					<path fill="#7D501B" d="M551.7,457c0.6,2.5,1,5,1.2,7.5c1.1-0.2,1.9-0.5,2-0.8c0.2-1.3,2.1-14.2,0.3-15.5
						c-0.6-0.2-4.2-0.1-7.4,0.4C548.5,451.3,551.1,454.4,551.7,457z"/>
					<path fill="#7D501B" d="M553.2,469.4c0,3.5-0.2,7.1-0.4,10.6c2.3-0.1,4.5-0.3,4.6-1c0.3-1.3,2.5-16.3,0.8-17.6
						c-0.4-0.2-2.9-0.2-5.6,0C553,464.1,553.2,466.7,553.2,469.4z"/>
					<path fill="#7D501B" d="M552.7,482.3c-0.1,1.8-0.8,3.3-0.4,5.1c0.4,1.8,1,3.9,0.8,5.7c-0.1,1.7-0.8,3.7-0.3,5.4
						c2.4,0,4.7-0.2,4.8-0.8c0.3-1.3,3-18.3,1.3-19.8c-0.4-0.2-3.1-0.3-6-0.2C552.9,479.3,552.8,480.8,552.7,482.3z"/>
					<path fill="#7D501B" d="M552.9,498.5c0.5,1.5,1.5,3.2,1.7,4.8c0.5,3-0.6,5-1.9,7.7c-1.2,2.3-0.2,0.8,1.5,1.9
						c1,0.6,2.2,1.4,2.7,2.6c0.6,1.4,0.8,2.7,0.7,4c0.9-0.1,1.5-0.3,1.6-0.6c0.4-1.2,3.4-20.4,1.8-21.9c-0.5-0.3-4.4-0.4-8.2-0.2
						C552.7,497.4,552.7,498,552.9,498.5z"/>
					<path fill="#7D501B" d="M556.8,522.6c-1.2,3.2-2.9,4.8-1,7.9c1.3,2.1,0.5,5.7-0.6,7.7c-0.4,0.7,0,1.9,0.7,3.2
						c1.9,0,3.4-0.2,3.5-0.6c0.4-1.2,3.9-22.5,2.3-24c-0.3-0.2-2.1-0.3-4.5-0.4C557.9,518.4,557.6,520.3,556.8,522.6z"/>
					<path fill="#7D501B" d="M563.1,538.3c-0.4-0.3-3.9-0.5-7.8-0.6c-0.1,0.1-0.1,0.3-0.2,0.4c-1,1.6,2.9,6.3,3.1,8.6
						c0.2,2.1-0.1,3.8-0.9,5.4c1.5,1.2,2.6,2.8,2.5,4.8c-0.2,2.9-1.8,5.1-2.4,7.9c0,0,0,0.1,0,0.1c1.6,0,2.7-0.2,2.8-0.6
						C560.7,563.2,564.6,540,563.1,538.3z"/>
					<path fill="#7D501B" d="M563,562.3c-0.3-0.2-2.1-0.4-4.5-0.5c-0.4,1-0.8,2-1,3.1c-0.8,3.7,0,7.2-1.4,10.8
						c-1.4,3.8-2.6,7.7-5.1,10.9c-2.1,2.7-6,1.1-5.4-2.3c0.1-0.7,0.2-1.4,0.4-2.1c0,0,0-0.1,0-0.1c-0.1-0.6-0.3-1.2-0.4-1.8
						c0,0,0,0.1,0,0.1c-0.4,0.9-1.1,1.6-1.9,1.9c0.2,4.1,0.5,7.4,0.9,7.6c1.1,0.6,14.6,1.9,15.1,0.7
						C560.2,589.4,564.5,564,563,562.3z"/>
				</g>
			</g>
			<g>
				<path fill="#488427" d="M539.1,403.1c0,0,27.1-10.8,56.8-3l-6.4,4.7c0,0,25.2,5.5,35.2,21.8c0,0-15.9-2.5-19.3-0.9
					c0,0,9.2,21.4,30.9,30.5c0,0-29.4-5.3-49.5-25.1c0,0,2.9,12.9,8.1,20.4c0,0-44.5-24.4-55.7-45.3c0,0,26,3,43.5,15
					C582.6,421.1,571.1,405.7,539.1,403.1z"/>
				<path opacity="0.3" fill="#488427" d="M614.5,439.9c-6.6-2.5-12.9-5.4-19.4-8.2c-1.6-0.7-6.2-2.6-6.8-2.9
					c-0.2-0.1-0.5-0.2-0.7-0.3c-5.5,3.2-12.7,3.6-18.1,0.1c-7.6-4.9-15.2-9.5-23.4-13.1c16.5,18.2,48.9,36,48.9,36
					c-5.2-7.4-8.1-20.4-8.1-20.4c20.1,19.8,49.5,25.1,49.5,25.1C626.6,452.2,619.5,445.8,614.5,439.9z"/>
			</g>
			<g>
				<path fill="#488427" d="M537,405c0,0-13.2-26-40.7-39.7l1.7,7.7c0,0-22.5-12.5-40.9-6.8c0,0,13.6,8.6,15.1,12.1
					c0,0-21,10-43.3,2.5c0,0,25.6,15.4,53.8,13.8c0,0-10.7,7.8-19.5,10c0,0,49.6,11,71.8,2.7c0,0-21.6-14.9-42.6-17.5
					C492.4,389.9,511.2,385.9,537,405z"/>
				<path opacity="0.3" fill="#488427" d="M481.3,394.7c-0.9-1.6-1.5-3.4-1.8-5.3c-3.8,0.1-7.6,0.3-11.3,0.3
					c-7.6,0.1-15.2-0.2-22.6-1.3C455.1,392,467.9,395.2,481.3,394.7z"/>
				<path opacity="0.3" fill="#488427" d="M527.3,406.8c-0.7-0.1-1.1-0.2-1.4-0.2c-0.2,0-0.4,0-0.6-0.1c-1.2-0.1-2.3-0.3-3.5-0.4
					c-3-0.3-6-0.5-9-0.7c-5.2-0.4-10.5-0.7-15.7-1.1c-6.5-0.5-12.2-3.7-15.4-8.8c-2.9,2-11.3,7.5-18.5,9.2c0,0,49.6,11,71.8,2.7
					c0,0-0.2-0.2-0.7-0.4C532,407.2,529.7,407.1,527.3,406.8z"/>
			</g>
			<g>
				<path fill="#488427" d="M539.1,401.3c0,0,27.2-17.7,57.1-7.3c0,0-1.8-5.6-4.3-6.4c0,0,21-9,44.3,5.3c0,0-1.4-13.2-31.2-21.3
					c0,0,3.9-6.1,10.7-6.8c0,0-29.3-10.9-50.6,1.1c0,0-2-5.4,0.9-8.4c0,0-28.7,7.9-29.1,43.8c0,0,7.6-25.2,30-27.9
					C566.9,373.4,550.5,380.2,539.1,401.3z"/>
				<path opacity="0.3" fill="#488427" d="M629.5,384.4c-0.6-0.3-0.9-0.4-1.2-0.6c-0.2-0.1-0.4-0.1-0.6-0.2
					c-3.3-1.2-6.7-2.3-10.1-3.1c-3.3-0.8-6.6-1.7-9.9-2.5c-3.1,2.6-7.1,4.2-11.3,4.1c-3-0.1-5.9-0.1-8.9,0.1
					c-1.3,0.1-2.6,0.2-3.9,0.3c-0.1,0-0.7,0.1-1.7,0.3c-5,1-10,2.2-14.8,3.9c-1.6,0.6-3.2,1.1-4.8,1.8c-0.5,0.2-0.8,0.3-1.1,0.4
					c-1.9,0.9-3.8,1.7-5.7,2.7c-4.8,2.4-9.5,4.9-14.1,7.6c-0.5,0.3-1.1,0.6-1.6,0.8c-0.3,0.5-0.5,1-0.8,1.5c0,0,27.2-17.7,57.1-7.3
					c0,0-1.8-5.6-4.3-6.4c0,0,21-9,44.3,5.3c0,0-0.3-3.2-4.2-7.4C631.2,385.1,630.4,384.7,629.5,384.4z"/>
			</g>
			<g>
				<path fill="#488427" d="M533.6,412.6c0,0-18.7,26.5-9.3,56.8c0,0-5.5-2-6.3-4.5c0,0-9.8,20.6,3.7,44.5c0,0-13.1-1.9-20.2-31.9
					c0,0-6.2,3.6-7.2,10.4c0,0-9.8-29.7,3-50.6c0,0-5.4-2.2-8.4,0.6c0,0,9-28.4,44.9-27.5c0,0-25.5,6.6-29,29
					C504.7,439.5,512.1,423.3,533.6,412.6z"/>
				<path opacity="0.3" fill="#488427" d="M523.9,422.2c-0.3,0.3-0.8,0.9-1.1,1.3c-0.8,1.3-1.6,2.6-2.3,4c-0.2,0.5-0.9,2-1,2.3
					c-0.2,0.5-0.4,1-0.5,1.5c-0.7,2.1-1.3,4.1-1.9,6.2c-1,3.8-1.8,7.7-2.5,11.6c-0.1,0.8-0.5,4.1-0.5,4.9c-0.1,1.5-0.2,3-0.2,4.5
					c-0.1,6.6-3.3,11.4-7.7,14.3c0.4,2,0.8,4,1.3,5.9c1.9,7.4,3.3,14.9,5.1,22.2c0.2,0.9,0.5,1.8,0.7,2.7c4.5,5,8.3,5.6,8.3,5.6
					c-13.4-23.8-3.7-44.5-3.7-44.5c0.7,2.5,6.3,4.5,6.3,4.5c-9.3-30.3,9.3-56.8,9.3-56.8c-1.1,0.5-2.1,1.1-3,1.6
					C529.2,417.4,526.9,420.1,523.9,422.2z"/>
			</g>
			<path opacity="0.2" fill="#4194B5" d="M211.1,634c-26.9,14.9,84.4,59.7,175.9,76.7c74.1,13.8,263.8-20.4,263.8-70.5
				c0,0-102.9-16.6-159.1-22.7C435.5,611.3,229.5,623.8,211.1,634z"/>
			<path fill="#FFCC7D" d="M211.1,640.2c-26.9-14.9,104.3-47,175.9-70.6c71.6-23.5,263.8,20.4,263.8,70.6c0,0-105.3-6.1-161.5,0
				C433,646.3,229.5,650.4,211.1,640.2z"/>
			<path opacity="0.3" fill="#FFCC7D" d="M604.4,597c-0.6,3.6-1.9,7.1-4.3,10.3c-6.1,8.3-14,14.3-23.4,18.4
				c-13.2,5.7-27.1,8-41.4,6.3c-15.3-1.8-30.1-5.8-45.3-8.5c-0.6-0.1-6.7-1-4.1-0.7c-1.4-0.2-2.9-0.3-4.3-0.4
				c-3.6-0.2-7.3-0.3-11-0.2c-7.8,0.1-15.6,0.4-23.4,0.7c-15.7,0.7-31.5,0.4-47.2,1.2c-4.3,0.2-8.7,0.5-13,0.9
				c-1.9,0.2-3.7,0.4-5.5,0.6c-0.6,0.1-1.1,0.1-1.4,0.2c-0.3,0-0.7,0.1-1.2,0.2c-7.3,1.2-14.4,3.1-21.7,4.7
				c-16.2,3.7-32.8,6.6-49.4,7.2c-16.1,0.6-32.4-0.1-48.5-0.2c-8.1-0.1-16.5-1-24.6-0.2c-0.9,0.1-1.4,0.1-1.8,0.2
				c-0.3,0-0.6,0.1-1,0.1c-1.9,0.3-3.7,0.5-5.6,0.8c-4.7,0.6-9.4,1.3-14.1,1.4c-0.5,0-1.1,0-1.6-0.1c0.2,0.1,0.3,0.2,0.5,0.3
				c18.4,10.2,221.9,6.1,278.1,0c56.2-6.1,161.5,0,161.5,0C650.8,624.6,632.2,609.6,604.4,597z"/>
			<g>
				<path fill="#FBF6F9" d="M650.8,640.2c0,0-6.9-0.1-18.9-0.2c-6,0-13.3-0.1-21.7-0.2c-4.2,0-8.7,0-13.4,0c-4.7,0-9.6,0-14.8,0
					c-10.3,0-21.5,0.2-33.3,0.4c-11.8,0.2-24.2,0.8-37,1.5c-3.2,0.2-6.4,0.5-9.7,0.7c-3.2,0.2-6.5,0.6-9.8,0.9
					c-3.3,0.3-6.7,0.7-10,1.1c-3.4,0.3-6.7,0.6-10.1,0.8c-13.6,1-27.3,1.7-41.1,2.4c-13.8,0.6-27.6,1-41.1,1.3
					c-13.6,0.4-26.9,0.4-39.8,0.5c-12.9,0.1-25.4,0-37.2-0.2c-11.8-0.2-23-0.5-33.4-0.9c-10.3-0.4-19.8-0.9-28.2-1.6
					c-8.4-0.6-15.7-1.3-21.7-2.1c-6-0.8-10.7-1.7-13.8-2.5c-1.6-0.4-2.7-0.9-3.5-1.2c-0.8-0.4-1.1-0.6-1.1-0.6s0.4,0.2,1.2,0.5
					c0.8,0.3,2,0.6,3.6,0.9c3.2,0.6,7.9,1.1,13.9,1.5c6,0.4,13.3,0.6,21.7,0.8c8.4,0.2,17.8,0.2,28.1,0.2c5.2,0,10.5,0,16.1-0.1
					c5.6-0.1,11.3-0.1,17.2-0.2c11.8-0.2,24.3-0.5,37.2-0.7c6.4-0.2,13-0.3,19.6-0.5c6.6-0.2,13.3-0.4,20.1-0.6
					c13.5-0.4,27.3-0.9,41-1.5c13.7-0.6,27.5-1.2,40.9-2.1c3.4-0.2,6.7-0.5,10-0.8c3.3-0.3,6.6-0.6,9.9-0.9c3.3-0.3,6.7-0.6,10-0.8
					c3.3-0.2,6.6-0.4,9.8-0.5c13-0.5,25.5-0.6,37.3-0.5c5.9,0,11.7,0.2,17.3,0.3c5.6,0.2,11,0.3,16.1,0.5
					c10.3,0.4,19.8,0.9,28.2,1.4c8.4,0.5,15.7,1,21.7,1.5c6,0.4,10.7,0.9,13.9,1.2C649.1,640,650.8,640.2,650.8,640.2z"/>
			</g>
			<path fill="#FBF6F9" d="M496.5,655.9c0,0,0.6-0.1,1.6-0.4c1.1-0.3,2.6-0.7,4.6-1.1c2-0.4,4.4-1,7.2-1.5c2.8-0.5,5.9-1.2,9.3-1.7
				c3.4-0.6,7.1-1.2,11.1-1.8c3.9-0.6,8.1-1.2,12.4-1.7c4.3-0.5,8.8-1.1,13.3-1.5c4.5-0.4,9.2-0.9,13.8-1.2c2.3-0.1,4.6-0.3,6.9-0.4
				c2.3-0.1,4.6-0.2,6.9-0.3c2.3-0.1,4.5-0.2,6.8-0.3c2.2,0,4.4-0.1,6.6-0.1c2.2,0,4.3-0.1,6.4-0.1c2.1,0,4.1,0.1,6.1,0.1
				c4,0.1,7.8,0.2,11.2,0.4c3.5,0.2,6.7,0.4,9.5,0.6c2.8,0.3,5.3,0.5,7.3,0.7c4,0.4,6.3,0.7,6.3,0.7s-2.3,0.1-6.4,0.1
				c-2,0-4.5,0-7.3,0c-2.8,0.1-6,0.2-9.5,0.2c-3.5,0-7.2,0.2-11.2,0.3c-2,0.1-4,0.1-6.1,0.2c-2.1,0.1-4.2,0.2-6.4,0.3
				c-2.2,0.1-4.4,0.2-6.6,0.3c-2.2,0.1-4.5,0.3-6.7,0.4c-2.3,0.1-4.5,0.3-6.8,0.4c-2.3,0.2-4.6,0.3-6.9,0.5c-4.6,0.3-9.2,0.7-13.7,1
				c-4.5,0.4-9,0.8-13.3,1.1c-4.3,0.4-8.5,0.8-12.4,1.2c-4,0.4-7.7,0.8-11.1,1.1c-6.9,0.7-12.6,1.3-16.7,1.7
				C498.8,655.6,496.5,655.9,496.5,655.9z"/>
			<path fill="#FBF6F9" d="M251.7,653.5c0,0,0.9,0,2.5,0.1c1.6,0.1,4,0.2,7.1,0.3c3,0.1,6.7,0.3,11,0.4c4.2,0.1,9,0.3,14.2,0.5
				c5.2,0.1,10.9,0.3,16.9,0.4c6,0.2,12.3,0.3,18.8,0.4c6.5,0.1,13.3,0.1,20.1,0.2c1.7,0,3.4,0.1,5.2,0.1c1.7,0,3.5,0,5.2,0
				c3.5,0,6.9-0.1,10.4-0.1c7,0,13.9,0,20.8,0c6.8-0.1,13.6-0.3,20.1-0.4c6.5-0.2,12.8-0.2,18.8-0.3c1.5,0,3,0,4.4-0.1
				c1.5,0,2.9-0.1,4.3-0.2c2.8-0.1,5.5-0.2,8.1-0.3c10.4-0.4,19.1-0.7,25.2-0.8c6.1-0.1,9.6-0.2,9.6-0.2s-3.5,0.4-9.5,1
				c-6.1,0.6-14.7,1.4-25.2,2.3c-5.2,0.4-10.9,1-16.8,1.2c-6,0.3-12.3,0.6-18.8,0.9c-3.3,0.1-6.6,0.3-10,0.4
				c-3.4,0.1-6.8,0.3-10.2,0.4c-6.9,0.1-13.8,0.1-20.8,0.2c-3.5,0-7,0-10.5,0c-1.7,0-3.5,0-5.2,0c-1.7,0-3.5-0.1-5.2-0.1
				c-6.9-0.1-13.6-0.4-20.2-0.6c-6.5-0.1-12.9-0.6-18.8-0.9c-6-0.4-11.6-0.7-16.9-1.1c-5.2-0.5-10-0.9-14.2-1.3
				c-4.2-0.4-7.9-0.8-10.9-1.2c-3-0.4-5.4-0.7-7-0.9C252.5,653.6,251.7,653.5,251.7,653.5z"/>
			<path fill="#FBF6F9" d="M201.7,627.1c0,0-0.4,0.2-1,0.6c-0.7,0.4-1.6,1-2.7,1.9c-1.1,0.9-2.4,2.1-3.3,3.7
				c-0.4,0.8-0.8,1.7-0.7,2.6l0,0.3l0.1,0.4c0,0.2,0.1,0.5,0.1,0.7c0.2,0.6,0.4,1.2,0.6,1.6c0.9,2,2.6,3.9,4.7,5.4
				c0.5,0.4,1.1,0.8,1.7,1.2c0.6,0.4,1.2,0.7,1.8,1c1.2,0.7,2.6,1.3,3.9,1.9c1.3,0.7,2.8,1.1,4.3,1.6c1.4,0.6,3,1,4.5,1.4
				c0.8,0.2,1.5,0.5,2.3,0.7c0.8,0.2,1.6,0.4,2.4,0.6c1.6,0.4,3.2,0.8,4.7,1.2c1.6,0.3,3.2,0.7,4.8,1c1.6,0.3,3.2,0.7,4.8,0.9
				c3.2,0.5,6.3,1.2,9.3,1.6c3.1,0.4,6,1,8.8,1.4c2.8,0.4,5.5,0.8,7.9,1.2c2.4,0.4,4.7,0.7,6.7,1c2,0.3,3.7,0.5,5.2,0.8
				c2.9,0.4,4.5,0.7,4.5,0.7s-1.7,0-4.6,0.1c-1.5,0-3.2,0-5.2,0c-1,0-2.1,0-3.2,0c-1.1,0-2.3-0.1-3.6-0.2c-2.5-0.1-5.2-0.3-8-0.5
				c-2.8-0.2-5.8-0.5-8.9-0.9c-0.8-0.1-1.6-0.2-2.3-0.3c-0.8-0.1-1.6-0.2-2.4-0.3c-1.6-0.2-3.2-0.5-4.8-0.7
				c-1.6-0.2-3.2-0.6-4.9-0.9c-1.6-0.3-3.3-0.6-4.9-1c-1.6-0.4-3.2-0.8-4.9-1.3c-0.8-0.2-1.6-0.4-2.4-0.6c-0.8-0.3-1.6-0.5-2.4-0.8
				c-1.6-0.5-3.2-1-4.7-1.6c-1.5-0.7-3-1.2-4.5-1.9c-1.4-0.7-2.9-1.4-4.2-2.3c-0.7-0.4-1.3-0.8-1.9-1.3c-0.6-0.5-1.2-1-1.8-1.4
				c-2.3-2-4.1-4.4-5-7c-0.3-0.7-0.3-1.2-0.5-1.8c-0.1-0.4-0.1-0.7-0.1-1.1l0-0.5l0.1-0.5c0.1-1.3,0.7-2.5,1.3-3.4
				c1.3-1.8,2.9-2.8,4.1-3.5c1.3-0.7,2.4-1.1,3.1-1.4C201.3,627.2,201.7,627.1,201.7,627.1z"/>
			<path fill="#FBF6F9" d="M658.2,627.1c0,0,0.4,0,1,0.2c0.6,0.2,1.5,0.5,2.5,1c1,0.5,2.1,1.3,3.2,2.4c1,1.1,2,2.5,2.4,4.1
				c0.2,0.8,0.3,1.7,0.3,2.5c0,0.8-0.2,1.6-0.5,2.4c-0.3,0.7-0.6,1.4-1,2c-0.4,0.6-0.8,1.1-1.2,1.5c-0.4,0.4-0.8,0.8-1.1,1.1
				c-0.3,0.3-0.7,0.5-1,0.7c-0.6,0.4-0.9,0.5-0.9,0.5s0.1-0.4,0.4-0.9c0.3-0.6,0.7-1.4,1.1-2.3c0.1-0.2,0.2-0.5,0.3-0.7
				c0.1-0.3,0.2-0.5,0.3-0.8c0.2-0.5,0.3-1.1,0.4-1.7c0.2-1.1,0.2-2.3-0.1-3.4c-0.6-2.3-2.3-4.3-3.7-5.9c-0.7-0.8-1.3-1.4-1.8-1.9
				C658.5,627.4,658.2,627.1,658.2,627.1z"/>
		</g>
		<g>
			<path fill="#FF8C21" d="M352.8,312l20.8-5.5l-17.6-12.3l17.6-12.3l-20.8-5.5l12.4-17.5l-21.4,1.9l5.6-20.7l-19.4,9.1l-1.8-21.4
				L313,243.1l-9-19.5l-9,19.5l-15.1-15.2l-1.8,21.4l-19.4-9.1l5.6,20.7l-21.4-1.9l12.4,17.5l-20.8,5.5l17.6,12.3l-17.6,12.3
				l20.8,5.5l-12.4,17.5l21.4-1.9l-5.6,20.7l19.4-9.1l1.8,21.4l15.1-15.2l9,19.5l9-19.5l15.1,15.2l1.8-21.4l19.4,9.1l-5.6-20.7
				l21.4,1.9L352.8,312z"/>
			<circle fill="#FFD261" cx="304" cy="294.2" r="52"/>
			<path opacity="0.3" fill="#FFD261" d="M347.8,266.2c2.3,5.8,3.6,12.2,3.6,18.8c0,28.2-23.6,51.8-51.8,51.8
				c-19.3,0-36.4-11-45.3-27c6.6,21.1,26.3,36.4,49.6,36.4c28.7,0,52-23.3,52-52C356,283.9,353,274.3,347.8,266.2z"/>
		</g>
	</g>
	<g>
		<g>
			<path fill-rule="evenodd" clip-rule="evenodd" fill="#F1F2F2" d="M672.5,278.4c-1.2-4.4-5.2-7.6-9.9-7.6c-0.2,0-0.4,0-0.6,0
				c-1-4.4-5-7.6-9.6-7.6c-2.6,0-5,1-6.8,2.7c-1.4-4.3-5.5-7.4-10.2-7.4c-0.4,0-0.7,0-1.1,0.1c-1.9-3.9-5.9-6.5-10.5-6.5
				c-5.4,0-10,3.7-11.3,8.6c-1.1-0.5-2.3-0.7-3.6-0.7c-3.7,0-6.9,2.2-8.4,5.3c-1.4-0.7-3-1.1-4.7-1.1c-4.7,0-8.6,3-9.6,7.1
				c-0.3,0-0.6,0-0.9,0c-4.5,0-8.2,3-9.4,7.1H672.5z"/>
			<path fill-rule="evenodd" clip-rule="evenodd" fill="#F1F2F2" d="M733.3,128.9c-1.6-6-7-10.4-13.5-10.4c-0.3,0-0.6,0-0.9,0
				c-1.4-5.9-6.7-10.4-13.1-10.4c-3.6,0-6.9,1.4-9.3,3.7c-1.9-5.8-7.5-10-14-10c-0.5,0-1,0-1.4,0.1c-2.6-5.3-8-8.9-14.3-8.9
				c-7.4,0-13.5,5-15.4,11.8c-1.5-0.6-3.1-1-4.8-1c-5,0-9.4,2.9-11.4,7.2c-1.9-1-4.1-1.5-6.4-1.5c-6.3,0-11.7,4.2-13,9.7
				c-0.4,0-0.8-0.1-1.2-0.1c-6.1,0-11.2,4.1-12.8,9.7H733.3z"/>
			<path fill-rule="evenodd" clip-rule="evenodd" fill="#F1F2F2" d="M135.7,273.8c-1.2-4.4-5.2-7.6-9.9-7.6c-0.2,0-0.4,0-0.6,0
				c-1-4.4-5-7.6-9.6-7.6c-2.6,0-5,1-6.8,2.7c-1.4-4.3-5.5-7.4-10.2-7.4c-0.4,0-0.7,0-1.1,0.1c-1.9-3.9-5.9-6.5-10.5-6.5
				c-5.4,0-10,3.7-11.3,8.6c-1.1-0.5-2.3-0.7-3.6-0.7c-3.7,0-6.9,2.2-8.4,5.3c-1.4-0.7-3-1.1-4.7-1.1c-4.7,0-8.6,3-9.6,7.1
				c-0.3,0-0.6,0-0.9,0c-4.5,0-8.2,3-9.4,7.1H135.7z"/>
			<path fill-rule="evenodd" clip-rule="evenodd" fill="#F1F2F2" d="M241.9,152.2c-1.6-6.1-7.2-10.6-13.8-10.6c-0.3,0-0.6,0-0.9,0
				c-1.4-6.1-6.9-10.6-13.4-10.6c-3.7,0-7,1.4-9.5,3.8c-2-6-7.6-10.3-14.3-10.3c-0.5,0-1,0-1.5,0.1c-2.7-5.4-8.2-9.1-14.6-9.1
				c-7.5,0-13.9,5.1-15.7,12c-1.5-0.6-3.2-1-4.9-1c-5.2,0-9.6,3-11.7,7.4c-1.9-1-4.1-1.5-6.5-1.5c-6.5,0-11.9,4.2-13.3,9.9
				c-0.4,0-0.8-0.1-1.2-0.1c-6.2,0-11.5,4.2-13.1,9.9H241.9z"/>
			<path fill-rule="evenodd" clip-rule="evenodd" fill="#80C041" d="M478.1,569.4c1.2,0.7,1.7,2.2,1,3.5l0,0.1
				c0.4,0.4,0.6,1,0.6,1.5c1-0.2,2-0.1,3,0.4c1.5,0.8,2.3,2.5,2,4.1c1,1.3,1.2,3.1,0.4,4.6c0,0.1-0.1,0.1-0.1,0.2
				c0.6,0.1,1.1,0.3,1.7,0.6c2.2,1.3,3,4.1,1.8,6.3c-1.3,2.2-4.1,3-6.3,1.8c-0.8-0.4-1.3-1-1.7-1.7c-1.6,0.7-3.5,0.7-5.1-0.3
				c-1.1-0.6-1.9-1.5-2.4-2.5c-2,0.9-4.5,0.9-6.6-0.3c-1.1-0.6-2-1.5-2.7-2.6c-1.8,0.6-3.7,0.5-5.5-0.5c-0.8-0.5-1.5-1.1-2-1.8
				c-0.5,0.2-1.1,0.3-1.6,0.2c0,0.1-0.1,0.2-0.1,0.3c-1.9,3.3-6.1,4.5-9.4,2.6c-1.1-0.6-2-1.5-2.6-2.5c-1.2,0.1-2.5-0.1-3.6-0.8
				c-0.6-0.4-1.2-0.8-1.6-1.3c-1.3,0.4-2.8,0.2-4.1-0.5c-2.6-1.5-3.5-4.8-2.1-7.4c1.2-2.1,3.5-3.1,5.8-2.7c-0.1-0.7,0-1.5,0.4-2.2
				c0.9-1.6,2.9-2.1,4.5-1.2c0.5,0.3,0.9,0.7,1.2,1.2c1.3-2.2,4.2-3,6.4-1.7c1.4,0.8,2.2,2.1,2.4,3.6c0.8-1,2.2-1.3,3.3-0.6
				c0,0,0.1,0,0.1,0.1c0.1-0.2,0.2-0.3,0.2-0.5c1.2-2,3.7-2.8,5.8-1.6c0.5,0.3,0.9,0.6,1.2,1c0.1-0.1,0.1-0.3,0.2-0.4
				c1.2-2.1,3.8-2.8,5.8-1.6c1.4,0.8,2.2,2.3,2.2,3.8c1-0.9,2.5-1.1,3.8-0.4c0.2,0.1,0.4,0.2,0.5,0.4
				C475.5,569.1,477,568.7,478.1,569.4z"/>
			<path fill-rule="evenodd" clip-rule="evenodd" fill="#74AA43" d="M497.7,579.6c1.2,0.7,1.7,2.2,1,3.5l0,0.1
				c0.4,0.4,0.6,1,0.6,1.5c1-0.2,2-0.1,3,0.4c1.5,0.8,2.3,2.5,2,4.1c1,1.3,1.2,3.1,0.4,4.6c0,0.1-0.1,0.1-0.1,0.2
				c0.6,0.1,1.1,0.3,1.7,0.6c2.2,1.3,3,4.1,1.8,6.3c-1.3,2.2-4.1,3-6.3,1.8c-0.8-0.4-1.3-1-1.7-1.7c-1.6,0.7-3.5,0.7-5.1-0.3
				c-1.1-0.6-1.9-1.5-2.4-2.5c-2,0.9-4.5,0.9-6.6-0.3c-1.1-0.6-2-1.5-2.7-2.6c-1.8,0.6-3.7,0.5-5.5-0.5c-0.8-0.5-1.5-1.1-2-1.8
				c-0.5,0.2-1.1,0.3-1.6,0.2c0,0.1-0.1,0.2-0.1,0.3c-1.9,3.3-6.1,4.5-9.4,2.6c-1.1-0.6-2-1.5-2.6-2.5c-1.2,0.1-2.5-0.1-3.6-0.8
				c-0.6-0.4-1.2-0.8-1.6-1.3c-1.3,0.4-2.8,0.2-4.1-0.5c-2.6-1.5-3.5-4.8-2.1-7.4c1.2-2.1,3.5-3.1,5.8-2.7c-0.1-0.7,0-1.5,0.4-2.2
				c0.9-1.6,2.9-2.1,4.5-1.2c0.5,0.3,0.9,0.7,1.2,1.2c1.3-2.2,4.2-3,6.4-1.7c1.4,0.8,2.2,2.1,2.4,3.6c0.8-1,2.2-1.3,3.3-0.6
				c0,0,0.1,0,0.1,0.1c0.1-0.2,0.2-0.3,0.2-0.5c1.2-2,3.7-2.8,5.8-1.6c0.5,0.3,0.9,0.6,1.2,1c0.1-0.1,0.1-0.3,0.2-0.4
				c1.2-2.1,3.8-2.8,5.8-1.6c1.4,0.8,2.2,2.3,2.2,3.8c1-0.9,2.5-1.1,3.8-0.4c0.2,0.1,0.4,0.2,0.5,0.4
				C495.1,579.3,496.6,578.9,497.7,579.6z"/>
			<path fill-rule="evenodd" clip-rule="evenodd" fill="#80C041" d="M356.8,565.6c1.4,0.2,2.4,1.4,2.2,2.8l0,0.1
				c0.5,0.2,1,0.6,1.2,1.2c0.8-0.6,1.8-0.9,2.9-0.8c1.7,0.2,3,1.4,3.5,3c1.4,0.8,2.3,2.3,2.1,4c0,0.1,0,0.1,0,0.2
				c0.6-0.2,1.1-0.2,1.8-0.1c2.5,0.3,4.4,2.6,4.1,5.1c-0.3,2.5-2.6,4.4-5.1,4.1c-0.9-0.1-1.6-0.4-2.3-0.9c-1.2,1.3-2.9,2-4.8,1.8
				c-1.2-0.1-2.3-0.6-3.2-1.4c-1.5,1.6-3.8,2.6-6.2,2.3c-1.3-0.1-2.5-0.6-3.5-1.3c-1.4,1.2-3.3,1.9-5.2,1.7
				c-0.9-0.1-1.8-0.4-2.6-0.8c-0.4,0.4-0.9,0.7-1.4,0.9c0,0.1,0,0.2,0,0.3c-0.4,3.8-3.8,6.5-7.6,6.1c-1.3-0.1-2.4-0.6-3.4-1.3
				c-1.1,0.6-2.3,0.9-3.6,0.7c-0.7-0.1-1.4-0.3-2-0.6c-1.1,0.9-2.5,1.3-4,1.1c-3-0.3-5.1-3-4.8-6c0.3-2.4,2-4.2,4.3-4.7
				c-0.4-0.6-0.6-1.4-0.5-2.1c0.2-1.8,1.8-3.1,3.6-2.9c0.6,0.1,1.1,0.3,1.6,0.6c0.4-2.5,2.7-4.4,5.2-4.1c1.6,0.2,2.9,1.1,3.6,2.3
				c0.3-1.2,1.5-2.1,2.8-1.9c0,0,0.1,0,0.1,0c0-0.2,0-0.4,0-0.6c0.3-2.3,2.4-4,4.7-3.8c0.5,0.1,1.1,0.2,1.5,0.5c0-0.2,0-0.3,0-0.5
				c0.3-2.4,2.4-4.1,4.7-3.8c1.6,0.2,2.9,1.2,3.5,2.6c0.6-1.2,1.9-2,3.3-1.9c0.2,0,0.4,0.1,0.6,0.1
				C354.3,566.3,355.5,565.4,356.8,565.6z"/>
			<path fill-rule="evenodd" clip-rule="evenodd" fill="#74AA43" d="M339.4,578.1c1.4,0.2,2.4,1.4,2.2,2.8l0,0.1
				c0.5,0.2,1,0.6,1.2,1.2c0.8-0.6,1.8-0.9,2.9-0.8c1.7,0.2,3,1.4,3.5,3c1.4,0.8,2.3,2.3,2.1,4c0,0.1,0,0.1,0,0.2
				c0.6-0.2,1.1-0.2,1.8-0.1c2.5,0.3,4.4,2.6,4.1,5.1c-0.3,2.5-2.6,4.4-5.1,4.1c-0.9-0.1-1.6-0.4-2.3-0.9c-1.2,1.3-2.9,2-4.8,1.8
				c-1.2-0.1-2.3-0.6-3.2-1.4c-1.5,1.6-3.8,2.6-6.2,2.3c-1.3-0.1-2.5-0.6-3.5-1.3c-1.4,1.2-3.3,1.9-5.2,1.7
				c-0.9-0.1-1.8-0.4-2.6-0.8c-0.4,0.4-0.9,0.7-1.4,0.9c0,0.1,0,0.2,0,0.3c-0.4,3.8-3.8,6.5-7.6,6.1c-1.3-0.1-2.4-0.6-3.4-1.3
				c-1.1,0.6-2.3,0.9-3.6,0.7c-0.7-0.1-1.4-0.3-2-0.6c-1.1,0.9-2.5,1.3-4,1.1c-3-0.3-5.1-3-4.8-6c0.3-2.4,2-4.2,4.3-4.7
				c-0.4-0.6-0.6-1.4-0.5-2.1c0.2-1.8,1.8-3.1,3.6-2.9c0.6,0.1,1.1,0.3,1.6,0.6c0.4-2.5,2.7-4.4,5.2-4.1c1.6,0.2,2.9,1.1,3.6,2.3
				c0.3-1.2,1.5-2.1,2.8-1.9c0,0,0.1,0,0.1,0c0-0.2,0-0.4,0-0.6c0.3-2.3,2.4-4,4.7-3.8c0.5,0.1,1.1,0.2,1.5,0.5c0-0.2,0-0.3,0-0.5
				c0.3-2.4,2.4-4.1,4.7-3.8c1.6,0.2,2.9,1.2,3.5,2.6c0.6-1.2,1.9-2,3.3-1.9c0.2,0,0.4,0.1,0.6,0.1
				C336.9,578.9,338.1,578,339.4,578.1z"/>
			<path fill-rule="evenodd" clip-rule="evenodd" fill="#EFB07A" d="M401.2,607.6c28,0,50.9-3.5,50.9-7.7c0-4.3-22.9-7.7-50.9-7.7
				c-28,0-50.9,3.5-50.9,7.7C350.3,604.2,373.1,607.6,401.2,607.6z"/>
			<g>
				<rect x="425" y="578.4" fill-rule="evenodd" clip-rule="evenodd" fill="#734F2B" width="3.4" height="17.8"/>
				<rect x="376.5" y="578.4" fill-rule="evenodd" clip-rule="evenodd" fill="#734F2B" width="3.4" height="17.8"/>
			</g>
			<polygon fill-rule="evenodd" clip-rule="evenodd" fill="#9E713B" points="362.8,584 369.3,584.1 441.5,584.1 449.8,537.6 
				356.7,537.8 			"/>
			<g>
				<defs>
					<polygon id="SVGID_1_" points="362.8,584 369.3,584.1 441.5,584.1 449.8,537.6 356.7,537.8 					"/>
				</defs>
				<clipPath id="SVGID_2_">
					<use xlink:href="#SVGID_1_"  overflow="visible"/>
				</clipPath>
				<g clip-path="url(#SVGID_2_)">
					<path fill-rule="evenodd" clip-rule="evenodd" fill="#815D31" d="M401.5,502.3c-28.4,2.7-49.1,27.2-56.5,44.5
						c2-0.3,3.9-0.6,5.9-1c-0.2,0.8-0.4,1.6-0.6,2.4c1.5-0.6,3.1-1.2,4.6-1.8c0,0-0.7,2.3,0.6,2.1c1.3-0.2,4.2-1.7,4.2-1.7
						s0,1.8,0.8,1.6c0.8-0.2,3.5-0.7,3.5-0.7c0.5,0,1-0.1,1.5-0.1c0,0,1.8,1.9,2.4,1.3c0.5-0.6,4.4-2.4,4.4-2.4
						c-0.2,0.9-0.5,1.7-0.7,2.6c2.2-0.3,4.4-0.6,6.6-0.9c0.8,0.5,1.5,1,2.3,1.5c1-0.6,1.9-1.1,2.9-1.7c0.6,0.5,1.3,1,1.9,1.6
						c0.9-0.4,1.8-0.9,2.7-1.3c0,0,0.1,2.1,0.8,1.6c0.7-0.5,3.7-2.2,3.7-2.2s0.5,2.2,1.5,1.6c1-0.6,3.3-1.6,3.3-1.6s1,2.2,1.7,1.5
						c0.7-0.7,2.9-1.8,2.9-1.8s0.7,2.3,1.6,1.6c0.8-0.7,2.5-1.5,2.5-1.5c1.5,0.8,2.9,1.7,4.4,2.5c0,0,3.6-2.7,3.8-2.4
						c0.2,0.3,1.5,2.9,2.5,2.4c1-0.5,2.5-2.4,2.5-2.4s3.3,2.3,3.7,1.6c0.4-0.7,1.3-2.1,2.3-1.7c1,0.4,3.6,2.4,4.1,2
						c0.4-0.4,0.5-2.2,1.6-1.8c1.1,0.4,3.9,1.9,4.2,1.5c0.3-0.4,1-1.3,1.5-1.3c0.4,0,6.5,2.3,6.6,1.7c0.1-0.6,0.7-1.7,1.9-1.3
						c1.1,0.4,2.4,0.9,3.3,0.9c0.8,0,2.5-1.2,2.5-1.2c4.3,1.1,3.2-0.2,7.5,0.9C439.3,511.1,418.7,504.5,401.5,502.3z"/>
				</g>
			</g>
			<g>
				<rect x="359.9" y="547.6" fill-rule="evenodd" clip-rule="evenodd" fill="#BA8048" width="13.7" height="1.4"/>
				<rect x="365.4" y="577" fill-rule="evenodd" clip-rule="evenodd" fill="#BA8048" width="13.8" height="1.5"/>
				<rect x="379.8" y="573.5" fill-rule="evenodd" clip-rule="evenodd" fill="#BA8048" width="6.5" height="0.8"/>
				<rect x="364.6" y="551.1" fill-rule="evenodd" clip-rule="evenodd" fill="#BA8048" width="7.3" height="1.8"/>
				<rect x="376.8" y="551.6" fill-rule="evenodd" clip-rule="evenodd" fill="#BA8048" width="7.5" height="2"/>
				<rect x="376.9" y="545.4" fill-rule="evenodd" clip-rule="evenodd" fill="#BA8048" width="7" height="1.6"/>
				<rect x="363.8" y="558.4" fill-rule="evenodd" clip-rule="evenodd" fill="#BA8048" width="5.8" height="1"/>
				<rect x="364.8" y="566" fill-rule="evenodd" clip-rule="evenodd" fill="#BA8048" width="4.4" height="0.9"/>
				<rect x="383.5" y="557.4" fill-rule="evenodd" clip-rule="evenodd" fill="#BA8048" width="4" height="1.1"/>
				<rect x="383.8" y="565.8" fill-rule="evenodd" clip-rule="evenodd" fill="#BA8048" width="3.1" height="0.7"/>
				<rect x="380.5" y="579.8" fill-rule="evenodd" clip-rule="evenodd" fill="#BA8048" width="6.3" height="0.9"/>
				<rect x="363.5" y="571.9" fill-rule="evenodd" clip-rule="evenodd" fill="#BA8048" width="5.6" height="1"/>
			</g>
			<g>
				<rect x="412.6" y="547.5" fill-rule="evenodd" clip-rule="evenodd" fill="#BA8048" width="13.7" height="1.4"/>
				<rect x="418.1" y="576.9" fill-rule="evenodd" clip-rule="evenodd" fill="#BA8048" width="13.8" height="1.5"/>
				<rect x="432.5" y="573.5" fill-rule="evenodd" clip-rule="evenodd" fill="#BA8048" width="6.5" height="0.8"/>
				<rect x="417.4" y="551" fill-rule="evenodd" clip-rule="evenodd" fill="#BA8048" width="7.3" height="1.8"/>
				<rect x="429.5" y="551.5" fill-rule="evenodd" clip-rule="evenodd" fill="#BA8048" width="7.5" height="2"/>
				<rect x="429.7" y="545.3" fill-rule="evenodd" clip-rule="evenodd" fill="#BA8048" width="7" height="1.6"/>
				<rect x="416.6" y="558.3" fill-rule="evenodd" clip-rule="evenodd" fill="#BA8048" width="5.8" height="1"/>
				<rect x="417.6" y="565.9" fill-rule="evenodd" clip-rule="evenodd" fill="#BA8048" width="4.4" height="0.9"/>
				<rect x="436.3" y="557.3" fill-rule="evenodd" clip-rule="evenodd" fill="#BA8048" width="4" height="1.1"/>
				<rect x="436.6" y="565.7" fill-rule="evenodd" clip-rule="evenodd" fill="#BA8048" width="3.1" height="0.7"/>
				<rect x="433.3" y="579.7" fill-rule="evenodd" clip-rule="evenodd" fill="#BA8048" width="6.3" height="0.9"/>
				<rect x="416.3" y="571.8" fill-rule="evenodd" clip-rule="evenodd" fill="#BA8048" width="5.6" height="1"/>
			</g>
			<path fill-rule="evenodd" clip-rule="evenodd" fill="#DBCC64" d="M402.2,496.6c-28.4,2.7-49.1,27.2-56.5,44.5
				c2-0.3,3.9-0.6,5.9-1c-0.2,0.8-0.4,1.6-0.6,2.4c1.5-0.6,3.1-1.2,4.6-1.8c0,0-0.7,2.3,0.6,2.1c1.3-0.2,4.2-1.7,4.2-1.7
				s0,1.8,0.8,1.6c0.8-0.2,3.5-0.7,3.5-0.7c0.5,0,1-0.1,1.5-0.1c0,0,1.8,1.9,2.4,1.3c0.5-0.6,4.4-2.4,4.4-2.4
				c-0.2,0.9-0.5,1.7-0.7,2.6c2.2-0.3,4.4-0.6,6.6-0.9c0.8,0.5,1.5,1,2.3,1.5c1-0.6,1.9-1.1,2.9-1.7c0.6,0.5,1.3,1,1.9,1.6
				c0.9-0.4,1.8-0.9,2.7-1.3c0,0,0.1,2.1,0.8,1.6c0.7-0.5,3.7-2.2,3.7-2.2s0.5,2.2,1.5,1.6c1-0.6,3.3-1.6,3.3-1.6s1,2.2,1.7,1.5
				c0.7-0.7,2.9-1.8,2.9-1.8s0.7,2.3,1.6,1.6c0.8-0.7,2.5-1.5,2.5-1.5c1.5,0.8,2.9,1.7,4.4,2.5c0,0,3.6-2.7,3.8-2.4
				c0.2,0.3,1.5,2.9,2.5,2.4c1-0.5,2.5-2.4,2.5-2.4s3.3,2.3,3.7,1.6c0.4-0.7,1.3-2.1,2.3-1.7c1,0.4,3.6,2.4,4.1,2
				c0.4-0.4,0.5-2.2,1.6-1.8c1.1,0.4,3.9,1.9,4.2,1.5c0.3-0.4,1-1.3,1.5-1.3c0.4,0,6.5,2.3,6.6,1.7c0.1-0.6,0.7-1.7,1.9-1.3
				c1.1,0.4,2.4,0.9,3.3,0.9c0.8,0,2.5-1.2,2.5-1.2c4.3,1.1,3.2-0.2,7.5,0.9C440,505.4,419.4,498.8,402.2,496.6z"/>
			<path fill-rule="evenodd" clip-rule="evenodd" fill="#E4D672" d="M401.8,496.7c26.6,2.1,46.1,21.2,53.1,34.8
				c-1.9-0.3-3.7-0.5-5.6-0.8c0.2,0.6,0.4,1.3,0.6,1.9c-1.4-0.5-2.9-0.9-4.3-1.4c0,0,0.7,1.8-0.6,1.6c-1.2-0.2-4-1.3-4-1.3
				s0,1.4-0.8,1.2c-0.8-0.2-3.3-0.6-3.3-0.6c-0.5,0-0.9-0.1-1.4-0.1c0,0-1.7,1.5-2.2,1c-0.5-0.5-4.1-1.8-4.1-1.8
				c0.2,0.7,0.5,1.4,0.7,2c-2.1-0.2-4.2-0.5-6.2-0.7c-0.7,0.4-1.4,0.8-2.2,1.1c-0.9-0.4-1.8-0.9-2.7-1.3c-0.6,0.4-1.2,0.8-1.8,1.2
				c-0.8-0.3-1.7-0.7-2.5-1c0,0-0.1,1.6-0.8,1.2c-0.7-0.4-3.5-1.7-3.5-1.7s-0.5,1.7-1.4,1.2c-0.9-0.5-3.1-1.2-3.1-1.2
				s-0.9,1.7-1.6,1.1c-0.7-0.6-2.7-1.4-2.7-1.4s-0.7,1.8-1.5,1.2c-0.8-0.6-2.4-1.1-2.4-1.1c-1.4,0.7-2.8,1.3-4.1,2
				c0,0-3.4-2.1-3.6-1.9c-0.2,0.2-1.4,2.2-2.4,1.9c-1-0.4-2.4-1.9-2.4-1.9s-3.1,1.8-3.5,1.3c-0.3-0.5-1.2-1.7-2.2-1.3
				c-1,0.3-3.4,1.9-3.8,1.6c-0.4-0.3-0.5-1.7-1.5-1.4c-1,0.3-3.7,1.5-4,1.2c-0.3-0.3-1-1-1.4-1c-0.4,0-6.1,1.8-6.2,1.3
				c-0.1-0.5-0.7-1.3-1.8-1c-1.1,0.3-2.3,0.7-3.1,0.7c-0.8,0-2.4-0.9-2.4-0.9c-4,0.8-3-0.1-7,0.7
				C366.3,503.6,382.7,498.3,401.8,496.7z"/>
			<path fill-rule="evenodd" clip-rule="evenodd" fill="#F2E37D" d="M401.3,495.5c25.4,1.8,44,17.8,50.7,29.2
				c-1.8-0.2-3.5-0.4-5.3-0.6c0.2,0.5,0.4,1.1,0.5,1.6c-1.4-0.4-2.7-0.8-4.1-1.2c0,0,0.6,1.5-0.5,1.3c-1.2-0.1-3.8-1.1-3.8-1.1
				s0,1.2-0.8,1c-0.8-0.2-3.1-0.5-3.1-0.5c-0.4,0-0.9-0.1-1.3-0.1c0,0-1.6,1.3-2.1,0.9c-0.5-0.4-3.9-1.5-3.9-1.5
				c0.2,0.6,0.4,1.1,0.7,1.7c-2-0.2-4-0.4-6-0.6c-0.7,0.3-1.4,0.6-2.1,1c-0.9-0.4-1.7-0.7-2.6-1.1c-0.6,0.3-1.2,0.7-1.7,1
				c-0.8-0.3-1.6-0.6-2.4-0.9c0,0-0.1,1.3-0.8,1c-0.7-0.3-3.4-1.4-3.4-1.4s-0.4,1.4-1.3,1c-0.9-0.4-2.9-1-2.9-1s-0.9,1.4-1.5,1
				c-0.7-0.5-2.6-1.2-2.6-1.2s-0.7,1.5-1.4,1c-0.8-0.5-2.3-1-2.3-1c-1.3,0.5-2.6,1.1-4,1.6c0,0-3.2-1.8-3.4-1.6
				c-0.2,0.2-1.4,1.9-2.3,1.6c-0.9-0.3-2.3-1.6-2.3-1.6s-3,1.5-3.3,1c-0.3-0.4-1.1-1.4-2.1-1.1c-0.9,0.3-3.3,1.6-3.6,1.3
				c-0.4-0.3-0.5-1.4-1.5-1.2c-1,0.2-3.5,1.3-3.8,1c-0.3-0.3-0.9-0.8-1.3-0.8c-0.4,0-5.8,1.5-5.9,1.1c-0.1-0.4-0.7-1.1-1.7-0.9
				c-1,0.2-2.2,0.6-2.9,0.6c-0.7,0-2.3-0.8-2.3-0.8c-3.9,0.7-2.9-0.1-6.7,0.6C367.4,501.2,383.1,496.8,401.3,495.5z"/>
			<rect x="392.2" y="552.4" fill-rule="evenodd" clip-rule="evenodd" fill="#7D5A2F" width="20.4" height="30.3"/>
			<rect x="393.1" y="553.3" fill-rule="evenodd" clip-rule="evenodd" fill="#3A2D17" width="18.7" height="28.5"/>
			<rect x="423.3" y="555.9" fill-rule="evenodd" clip-rule="evenodd" fill="#3A2D17" width="11.3" height="17.2"/>
			<rect x="370.3" y="555.9" fill-rule="evenodd" clip-rule="evenodd" fill="#3A2D17" width="11.3" height="17.2"/>
			<rect x="436.3" y="583.7" fill-rule="evenodd" clip-rule="evenodd" fill="#734F2B" width="3.4" height="17.8"/>
			<rect x="364.5" y="583.7" fill-rule="evenodd" clip-rule="evenodd" fill="#734F2B" width="3.4" height="17.8"/>
			<rect x="360.2" y="582.4" fill-rule="evenodd" clip-rule="evenodd" fill="#815A2F" width="84.3" height="6.7"/>
			<g>
				<g>
					<rect x="391.2" y="582.9" fill-rule="evenodd" clip-rule="evenodd" fill="#B47233" width="2.9" height="19.1"/>
					<rect x="410.7" y="582.9" fill-rule="evenodd" clip-rule="evenodd" fill="#B47233" width="2.9" height="19.1"/>
				</g>
				<g>
					<rect x="388.5" y="582.9" fill-rule="evenodd" clip-rule="evenodd" fill="#BF7C42" width="27.7" height="2.2"/>
					<rect x="388.5" y="588.6" fill-rule="evenodd" clip-rule="evenodd" fill="#BF7C42" width="27.7" height="2.2"/>
					<rect x="388.5" y="594.2" fill-rule="evenodd" clip-rule="evenodd" fill="#BF7C42" width="27.7" height="2.2"/>
					<rect x="388.5" y="599.8" fill-rule="evenodd" clip-rule="evenodd" fill="#BF7C42" width="27.7" height="2.2"/>
				</g>
			</g>
			<path fill-rule="evenodd" clip-rule="evenodd" fill="#EFB07A" d="M315.3,619.8c2.2,0,3.9-0.5,3.9-1c0-0.6-1.8-1-3.9-1
				s-3.9,0.5-3.9,1C311.3,619.4,313.1,619.8,315.3,619.8z"/>
			<path fill-rule="evenodd" clip-rule="evenodd" fill="#EFB07A" d="M327.4,604.6c1.6,0,3-0.4,3-0.9c0-0.5-1.3-0.9-3-0.9
				c-1.6,0-3,0.4-3,0.9C324.4,604.2,325.8,604.6,327.4,604.6z"/>
			<path fill-rule="evenodd" clip-rule="evenodd" fill="#EFB07A" d="M353.8,622.7c2.4,0,4.3-0.5,4.3-1.2c0-0.7-1.9-1.2-4.3-1.2
				c-2.4,0-4.3,0.5-4.3,1.2C349.5,622.2,351.4,622.7,353.8,622.7z"/>
			<path fill-rule="evenodd" clip-rule="evenodd" fill="#EFB07A" d="M343.7,609.5c1.3,0,2.4-0.4,2.4-0.9c0-0.5-1.1-0.9-2.4-0.9
				s-2.4,0.4-2.4,0.9C341.3,609.1,342.3,609.5,343.7,609.5z"/>
			<path fill-rule="evenodd" clip-rule="evenodd" fill="#EFB07A" d="M349.4,594.8c2,0,3.7-0.7,3.7-1.6c0-0.9-1.7-1.6-3.7-1.6
				c-2,0-3.7,0.7-3.7,1.6C345.7,594.1,347.4,594.8,349.4,594.8z"/>
			<path fill-rule="evenodd" clip-rule="evenodd" fill="#EFB07A" d="M311.7,598.4c1.2,0,2.1-0.4,2.1-0.8c0-0.4-0.9-0.8-2.1-0.8
				c-1.2,0-2.1,0.4-2.1,0.8C309.6,598.1,310.5,598.4,311.7,598.4z"/>
			<path fill-rule="evenodd" clip-rule="evenodd" fill="#EFB07A" d="M298.7,613.7c1.5,0,2.8-0.4,2.8-0.8s-1.2-0.8-2.8-0.8
				c-1.5,0-2.8,0.4-2.8,0.8S297.2,613.7,298.7,613.7z"/>
			<path fill-rule="evenodd" clip-rule="evenodd" fill="#EFB07A" d="M396.8,620.9c2,0,3.7-0.6,3.7-1.4c0-0.8-1.7-1.4-3.7-1.4
				c-2,0-3.7,0.6-3.7,1.4C393.2,620.2,394.8,620.9,396.8,620.9z"/>
			<path fill-rule="evenodd" clip-rule="evenodd" fill="#EFB07A" d="M379,613.9c1.4,0,2.5-0.4,2.5-1c0-0.5-1.1-1-2.5-1
				s-2.5,0.4-2.5,1C376.5,613.4,377.6,613.9,379,613.9z"/>
			<path fill-rule="evenodd" clip-rule="evenodd" fill="#EFB07A" d="M432.7,623.2c2.2,0,3.9-0.3,3.9-0.7s-1.8-0.7-3.9-0.7
				c-2.2,0-3.9,0.3-3.9,0.7S430.5,623.2,432.7,623.2z"/>
			<path fill-rule="evenodd" clip-rule="evenodd" fill="#EFB07A" d="M420.6,612.6c1,0,1.9-0.3,1.9-0.7s-0.8-0.7-1.9-0.7
				s-1.9,0.3-1.9,0.7S419.6,612.6,420.6,612.6z"/>
			<path fill-rule="evenodd" clip-rule="evenodd" fill="#EFB07A" d="M445,614.7c1.7,0,3.1-0.6,3.1-1.2s-1.4-1.2-3.1-1.2
				c-1.7,0-3.1,0.6-3.1,1.2S443.3,614.7,445,614.7z"/>
			<path fill-rule="evenodd" clip-rule="evenodd" fill="#EFB07A" d="M466.4,611.3c2,0,3.6-0.5,3.6-1.2c0-0.7-1.6-1.2-3.6-1.2
				s-3.6,0.5-3.6,1.2C462.8,610.8,464.4,611.3,466.4,611.3z"/>
			<path fill-rule="evenodd" clip-rule="evenodd" fill="#EFB07A" d="M480.3,597.9c2.2,0,4.1-0.4,4.1-0.8c0-0.4-1.8-0.8-4.1-0.8
				c-2.2,0-4.1,0.4-4.1,0.8C476.3,597.6,478.1,597.9,480.3,597.9z"/>
			<path fill-rule="evenodd" clip-rule="evenodd" fill="#EFB07A" d="M458.1,592.6c1.5,0,2.7-0.4,2.7-0.8s-1.2-0.8-2.7-0.8
				c-1.5,0-2.7,0.4-2.7,0.8S456.6,592.6,458.1,592.6z"/>
			<path fill-rule="evenodd" clip-rule="evenodd" fill="#EFB07A" d="M453.1,585.4c1.1,0,1.9-0.2,1.9-0.5c0-0.2-0.9-0.5-1.9-0.5
				c-1.1,0-1.9,0.2-1.9,0.5C451.1,585.2,452,585.4,453.1,585.4z"/>
			<path fill-rule="evenodd" clip-rule="evenodd" fill="#EFB07A" d="M483.9,617.4c2.2,0,4-0.4,4-0.9c0-0.5-1.8-0.9-4-0.9
				c-2.2,0-4,0.4-4,0.9C479.8,617,481.7,617.4,483.9,617.4z"/>
			<path fill-rule="evenodd" clip-rule="evenodd" fill="#EFB07A" d="M497.2,605.2c2.5,0,4.5-0.4,4.5-0.9c0-0.5-2-0.9-4.5-0.9
				c-2.5,0-4.5,0.4-4.5,0.9C492.7,604.8,494.7,605.2,497.2,605.2z"/>
			<g>
				<path fill-rule="evenodd" clip-rule="evenodd" fill="#749F4B" d="M366.3,602.8c-1.6-4.9-4.7-6.8-9.9-7.5
					C360.2,597.7,362,601.8,366.3,602.8z"/>
				<path fill-rule="evenodd" clip-rule="evenodd" fill="#86C55F" d="M356.4,598.8c0,0,2.3,0.6,5.1,2.2c2.8,1.6,4.6,1.9,4.6,1.9
					C364.9,599.5,360.2,597,356.4,598.8z"/>
				<path fill-rule="evenodd" clip-rule="evenodd" fill="#749F4B" d="M373.2,594.4c-1,0-7,6.5-7.2,8.6
					C363.4,595.2,373.3,594.4,373.2,594.4z"/>
				<path fill-rule="evenodd" clip-rule="evenodd" fill="#86C55F" d="M371.5,597.7c2.9,0,4.5,1.4,4.3,1.4c-0.2,0-5.3,1.4-7.2,2.2
					c-1.9,0.8-2.6,1.9-2.5,1.6C366.9,599.2,368.4,597.7,371.5,597.7z"/>
			</g>
			<g>
				<path fill-rule="evenodd" clip-rule="evenodd" fill="#749F4B" d="M438.8,603c-1.6-4.9-4.7-6.8-9.9-7.5
					C432.7,597.9,434.5,602,438.8,603z"/>
				<path fill-rule="evenodd" clip-rule="evenodd" fill="#86C55F" d="M428.9,599.1c0,0,2.3,0.6,5.1,2.2c2.8,1.6,4.6,1.9,4.6,1.9
					C437.4,599.8,432.7,597.2,428.9,599.1z"/>
				<path fill-rule="evenodd" clip-rule="evenodd" fill="#749F4B" d="M445.7,594.6c-1,0-7,6.5-7.2,8.6
					C435.9,595.4,445.7,594.6,445.7,594.6z"/>
				<path fill-rule="evenodd" clip-rule="evenodd" fill="#86C55F" d="M443.9,597.9c2.9,0,4.5,1.4,4.3,1.4c-0.2,0-5.3,1.4-7.2,2.2
					c-1.9,0.8-2.6,1.9-2.5,1.6C439.3,599.4,440.9,597.9,443.9,597.9z"/>
			</g>
			<g>
				<path fill-rule="evenodd" clip-rule="evenodd" fill="#749F4B" d="M429,604.7c-1.6-4.9-4.7-6.8-9.9-7.5
					C422.9,599.6,424.7,603.7,429,604.7z"/>
				<path fill-rule="evenodd" clip-rule="evenodd" fill="#86C55F" d="M419.1,600.7c0,0,2.3,0.6,5.1,2.2c2.8,1.6,4.6,1.9,4.6,1.9
					C427.6,601.4,422.9,598.9,419.1,600.7z"/>
				<path fill-rule="evenodd" clip-rule="evenodd" fill="#749F4B" d="M435.9,596.3c-1,0-7,6.5-7.2,8.6
					C426.1,597.1,436,596.3,435.9,596.3z"/>
				<path fill-rule="evenodd" clip-rule="evenodd" fill="#86C55F" d="M434.2,599.6c2.9,0,4.5,1.4,4.3,1.4c-0.2,0-5.3,1.4-7.2,2.2
					c-1.9,0.8-2.6,1.9-2.5,1.6C429.6,601.1,431.1,599.6,434.2,599.6z"/>
			</g>
			<g>
				<path fill-rule="evenodd" clip-rule="evenodd" fill="#749F4B" d="M443.2,604.8c-1.6-4.9-4.7-6.8-9.9-7.5
					C437.1,599.8,438.9,603.9,443.2,604.8z"/>
				<path fill-rule="evenodd" clip-rule="evenodd" fill="#86C55F" d="M433.3,600.9c0,0,2.3,0.6,5.1,2.2c2.8,1.6,4.6,1.9,4.6,1.9
					C441.8,601.6,437.1,599,433.3,600.9z"/>
				<path fill-rule="evenodd" clip-rule="evenodd" fill="#749F4B" d="M450.1,596.5c-1,0-7,6.5-7.2,8.6
					C440.3,597.3,450.1,596.5,450.1,596.5z"/>
				<path fill-rule="evenodd" clip-rule="evenodd" fill="#86C55F" d="M448.4,599.7c2.9,0,4.5,1.4,4.3,1.4c-0.2,0-5.3,1.4-7.2,2.2
					c-1.9,0.8-2.6,1.9-2.5,1.6C443.8,601.2,445.3,599.7,448.4,599.7z"/>
			</g>
			<g>
				<path fill-rule="evenodd" clip-rule="evenodd" fill="#749F4B" d="M374.8,605.8c-1.4-4.2-4-5.8-8.4-6.4
					C369.7,601.5,371.2,605,374.8,605.8z"/>
				<path fill-rule="evenodd" clip-rule="evenodd" fill="#86C55F" d="M366.4,602.4c0,0,2,0.5,4.3,1.9c2.4,1.4,3.9,1.6,3.9,1.6
					C373.7,603,369.7,600.8,366.4,602.4z"/>
				<path fill-rule="evenodd" clip-rule="evenodd" fill="#749F4B" d="M380.8,598.6c-0.9,0-6,5.6-6.1,7.3
					C372.4,599.3,380.8,598.6,380.8,598.6z"/>
				<path fill-rule="evenodd" clip-rule="evenodd" fill="#86C55F" d="M379.3,601.4c2.5,0,3.8,1.2,3.7,1.2c-0.1,0-4.5,1.2-6.2,1.9
					c-1.6,0.7-2.2,1.6-2.2,1.4C375.3,602.7,376.7,601.4,379.3,601.4z"/>
			</g>
			<g>
				<path fill-rule="evenodd" clip-rule="evenodd" fill="#749F4B" d="M360.8,604.3c-1.3-3.8-3.6-5.3-7.6-5.8
					C356.2,600.4,357.5,603.6,360.8,604.3z"/>
				<path fill-rule="evenodd" clip-rule="evenodd" fill="#86C55F" d="M353.2,601.3c0,0,1.8,0.4,3.9,1.7c2.1,1.3,3.5,1.5,3.5,1.5
					C359.8,601.8,356.2,599.9,353.2,601.3z"/>
				<path fill-rule="evenodd" clip-rule="evenodd" fill="#749F4B" d="M366.2,597.9c-0.8,0-5.4,5-5.5,6.6
					C358.6,598.5,366.2,597.9,366.2,597.9z"/>
				<path fill-rule="evenodd" clip-rule="evenodd" fill="#86C55F" d="M364.9,600.4c2.2,0,3.4,1.1,3.3,1.1c-0.1,0-4.1,1.1-5.6,1.7
					c-1.5,0.6-2,1.4-1.9,1.3C361.3,601.5,362.5,600.4,364.9,600.4z"/>
			</g>
			<g>
				<path fill-rule="evenodd" clip-rule="evenodd" fill="#749F4B" d="M456.3,593.5c-1-3-2.9-4.1-6-4.5
					C452.7,590.4,453.7,592.9,456.3,593.5z"/>
				<path fill-rule="evenodd" clip-rule="evenodd" fill="#86C55F" d="M450.3,591.1c0,0,1.4,0.4,3.1,1.4c1.7,1,2.8,1.2,2.8,1.2
					C455.5,591.5,452.7,590,450.3,591.1z"/>
				<path fill-rule="evenodd" clip-rule="evenodd" fill="#749F4B" d="M460.6,588.4c-0.6,0-4.3,4-4.4,5.2
					C454.6,588.9,460.6,588.4,460.6,588.4z"/>
				<path fill-rule="evenodd" clip-rule="evenodd" fill="#86C55F" d="M459.5,590.4c1.8,0,2.7,0.9,2.6,0.8c-0.1,0-3.2,0.9-4.4,1.4
					c-1.2,0.5-1.6,1.1-1.5,1C456.7,591.3,457.7,590.4,459.5,590.4z"/>
			</g>
			<g>
				<path fill-rule="evenodd" clip-rule="evenodd" fill="#749F4B" d="M505.4,607.7c-1-3-2.9-4.2-6-4.5
					C501.7,604.6,502.7,607.1,505.4,607.7z"/>
				<path fill-rule="evenodd" clip-rule="evenodd" fill="#86C55F" d="M499.4,605.3c0,0,1.4,0.4,3.1,1.4c1.7,1,2.8,1.2,2.8,1.2
					C504.5,605.7,501.7,604.2,499.4,605.3z"/>
				<path fill-rule="evenodd" clip-rule="evenodd" fill="#749F4B" d="M509.6,602.6c-0.6,0-4.3,4-4.4,5.2
					C503.6,603.1,509.6,602.6,509.6,602.6z"/>
				<path fill-rule="evenodd" clip-rule="evenodd" fill="#86C55F" d="M508.5,604.6c1.8,0,2.7,0.9,2.6,0.8c-0.1,0-3.2,0.9-4.4,1.4
					c-1.2,0.5-1.6,1.1-1.5,1C505.7,605.5,506.7,604.6,508.5,604.6z"/>
			</g>
			<g>
				<path fill-rule="evenodd" clip-rule="evenodd" fill="#749F4B" d="M490.5,597.3c-1-3-2.9-4.2-6-4.5
					C486.8,594.2,487.9,596.7,490.5,597.3z"/>
				<path fill-rule="evenodd" clip-rule="evenodd" fill="#86C55F" d="M484.5,594.9c0,0,1.4,0.4,3.1,1.4c1.7,1,2.8,1.2,2.8,1.2
					C489.6,595.3,486.8,593.8,484.5,594.9z"/>
				<path fill-rule="evenodd" clip-rule="evenodd" fill="#749F4B" d="M494.7,592.2c-0.6,0-4.3,4-4.4,5.2
					C488.7,592.7,494.7,592.2,494.7,592.2z"/>
				<path fill-rule="evenodd" clip-rule="evenodd" fill="#86C55F" d="M493.6,594.2c1.8,0,2.7,0.9,2.6,0.8c-0.1,0-3.2,0.9-4.4,1.4
					c-1.2,0.5-1.6,1.1-1.5,1C490.8,595.1,491.8,594.2,493.6,594.2z"/>
			</g>
			<g>
				<path fill-rule="evenodd" clip-rule="evenodd" fill="#749F4B" d="M348.8,591.4c-1-3-2.9-4.1-6-4.5
					C345.1,588.4,346.2,590.9,348.8,591.4z"/>
				<path fill-rule="evenodd" clip-rule="evenodd" fill="#86C55F" d="M342.8,589c0,0,1.4,0.4,3.1,1.4c1.7,1,2.8,1.2,2.8,1.2
					C348,589.5,345.1,587.9,342.8,589z"/>
				<path fill-rule="evenodd" clip-rule="evenodd" fill="#749F4B" d="M353,586.3c-0.6,0-4.3,4-4.4,5.2
					C347.1,586.8,353.1,586.3,353,586.3z"/>
				<path fill-rule="evenodd" clip-rule="evenodd" fill="#86C55F" d="M352,588.3c1.8,0,2.7,0.9,2.6,0.8c-0.1,0-3.2,0.9-4.4,1.4
					c-1.2,0.5-1.6,1.1-1.5,1C349.2,589.2,350.1,588.3,352,588.3z"/>
			</g>
			<g>
				<path fill-rule="evenodd" clip-rule="evenodd" fill="#749F4B" d="M313.3,607.9c-1-3-2.9-4.1-6-4.5
					C309.6,604.8,310.7,607.3,313.3,607.9z"/>
				<path fill-rule="evenodd" clip-rule="evenodd" fill="#86C55F" d="M307.3,605.5c0,0,1.4,0.4,3.1,1.4c1.7,1,2.8,1.2,2.8,1.2
					C312.5,605.9,309.6,604.3,307.3,605.5z"/>
				<path fill-rule="evenodd" clip-rule="evenodd" fill="#749F4B" d="M317.5,602.8c-0.6,0-4.3,4-4.4,5.2
					C311.6,603.3,317.5,602.8,317.5,602.8z"/>
				<path fill-rule="evenodd" clip-rule="evenodd" fill="#86C55F" d="M316.5,604.8c1.8,0,2.7,0.9,2.6,0.8c-0.1,0-3.2,0.9-4.4,1.4
					s-1.6,1.1-1.5,1C313.7,605.7,314.6,604.8,316.5,604.8z"/>
			</g>
			<g>
				<path fill-rule="evenodd" clip-rule="evenodd" fill="#749F4B" d="M363.8,618.5c-1-3-2.9-4.2-6-4.5
					C360.1,615.4,361.2,617.9,363.8,618.5z"/>
				<path fill-rule="evenodd" clip-rule="evenodd" fill="#86C55F" d="M357.8,616.1c0,0,1.4,0.4,3.1,1.4c1.7,1,2.8,1.2,2.8,1.2
					C363,616.5,360.1,614.9,357.8,616.1z"/>
				<path fill-rule="evenodd" clip-rule="evenodd" fill="#749F4B" d="M368,613.4c-0.6,0-4.3,4-4.4,5.2
					C362.1,613.9,368.1,613.4,368,613.4z"/>
				<path fill-rule="evenodd" clip-rule="evenodd" fill="#86C55F" d="M367,615.4c1.8,0,2.7,0.9,2.6,0.8s-3.2,0.9-4.4,1.4
					c-1.2,0.5-1.6,1.1-1.5,1C364.2,616.3,365.1,615.4,367,615.4z"/>
			</g>
			<path fill-rule="evenodd" clip-rule="evenodd" fill="#EC1C24" d="M515.3,628.5c-0.1-0.1-1.7-1.8-2.1-1.3
				c-0.5,0.5,0.1,2.1-0.1,2.3c-0.2,0.2-2.2,1-1.9,1.5c0.3,0.5,2.4,0.2,2.4,0.4c0,0.3-0.1,2.3,0.4,2.3c0.5,0,1.3-1.8,1.5-2
				c0.3-0.2,2.5,0.7,2.8,0.1c0.2-0.6-1.8-1.4-1.6-1.8c0.2-0.3,1.4-1.9,1-2.1C517.3,627.8,515.3,628.5,515.3,628.5z"/>
			<path fill-rule="evenodd" clip-rule="evenodd" fill="#EC1C24" d="M484.5,624.2c0-0.2,0.6-2.4,0-2.5c-0.7-0.1-1.7,1.3-2,1.2
				c-0.2-0.1-2-1.3-2.3-0.8c-0.3,0.5,1.1,2.1,0.9,2.2c-0.2,0.2-1.9,1.1-1.7,1.6c0.3,0.4,2.2,0.1,2.5,0.2c0.3,0.1,0.8,2.5,1.4,2.4
				c0.6-0.1,0.2-2.3,0.6-2.3c0.4,0,2.4,0.1,2.3-0.3C486.2,625.5,484.5,624.2,484.5,624.2z"/>
			<rect x="370.3" y="555.9" fill-rule="evenodd" clip-rule="evenodd" fill="#231D0A" width="1.3" height="17.2"/>
			<rect x="433.2" y="555.9" fill-rule="evenodd" clip-rule="evenodd" fill="#231D0A" width="1.3" height="17.2"/>
			<path fill-rule="evenodd" clip-rule="evenodd" fill="#C18858" d="M278.1,631.2l-5,12.8l24.3,2.3c0,0,37.1-5.3,44.7-10.3
				c7.6-5-0.9-5.4-3.3-4.8c-2.4,0.6-55.3,3.9-55.3,3.9L278.1,631.2z"/>
			<g>
				<path fill-rule="evenodd" clip-rule="evenodd" fill="#A15641" d="M224.6,631.1c19.9-0.9,101.6-11.4,112.7-14.9
					C333,650,231.6,655.4,224.6,631.1z"/>
				<path fill-rule="evenodd" clip-rule="evenodd" fill="#F7D6AF" d="M224.4,633.2c21.9-1.3,101.5-11.5,113.5-15.1
					c1.1-0.2,1.7-2.4,0.4-2.3c-11.3,3.6-94.5,14.3-114.8,15.2C222.9,631.1,223.5,633.3,224.4,633.2z"/>
				<path fill-rule="evenodd" clip-rule="evenodd" fill="#965038" d="M227,635.3c22.5-1.5,94.5-10.7,109-14.4
					c0.4-0.8,0.6-1.7,0.9-2.5c-7.3,1.9-29.4,5.2-52.5,8.2c-0.4,0.1-0.8,0.1-1.2,0.2c-22.9,3-46.6,5.7-57.8,6.4
					C225.8,633.9,226.3,634.6,227,635.3z"/>
				<path fill-rule="evenodd" clip-rule="evenodd" fill="#9B5842" d="M336,620.9c-14.5,3.7-86.5,13-109,14.4c0.8,0.9,1.8,1.8,3,2.7
					c24-1.9,86.6-9.9,104.2-13.8C334.9,623.2,335.5,622.1,336,620.9z"/>
				<path fill-rule="evenodd" clip-rule="evenodd" fill="#965038" d="M334.2,624.3C316.6,628.1,254,636.1,230,638
					c1.1,0.8,2.3,1.5,3.7,2.1c25.1-2.2,79-9.2,98.2-13C332.7,626.2,333.5,625.3,334.2,624.3z"/>
				<path fill-rule="evenodd" clip-rule="evenodd" fill="#9B5842" d="M331.8,627.2c-19.2,3.8-73.1,10.7-98.2,13
					c1.9,0.9,4,1.7,6.3,2.4c24.6-2.4,67-7.9,87.6-11.5C329.1,629.8,330.6,628.5,331.8,627.2z"/>
				<path fill-rule="evenodd" clip-rule="evenodd" fill="#965038" d="M327.5,631.1c-20.6,3.6-63,9.1-87.6,11.5
					c2.2,0.7,4.6,1.3,7.1,1.7c22.5-2.4,55.1-6.6,75.2-9.8C324.1,633.4,325.9,632.3,327.5,631.1z"/>
			</g>
		</g>
	</g>
</g>
<g id="designed_by_freepik" display="none">
</g>
</svg>
